<svg width="21" height="21" viewBox="0 0 21 21" fill="none" xmlns="http://www.w3.org/2000/svg">
<path d="M10.1948 10.1949H10.2048M13.7303 13.7305C9.04411 18.4168 3.66216 20.6328 1.70954 18.6802C-0.243076 16.7276 1.973 11.3457 6.65929 6.65943C11.3456 1.97314 16.7275 -0.242936 18.6801 1.70968C20.6327 3.6623 18.4166 9.04422 13.7303 13.7305ZM13.7303 6.65925C18.4166 11.3455 20.6327 16.7274 18.6801 18.68C16.7274 20.6327 11.3455 18.4166 6.65925 13.7303C1.97296 9.04402 -0.243116 3.66212 1.7095 1.7095C3.66212 -0.243116 9.04401 1.97296 13.7303 6.65925ZM10.6948 10.1949C10.6948 10.4711 10.471 10.6949 10.1948 10.6949C9.91871 10.6949 9.69481 10.4711 9.69481 10.1949C9.69481 9.91882 9.91871 9.69492 10.1948 9.69492C10.471 9.69492 10.6948 9.91882 10.6948 10.1949Z" stroke="#5956E8" stroke-width="2" stroke-linecap="round" stroke-linejoin="round"/>
</svg>
