<?xml version="1.0" encoding="UTF-8"?>
<svg id="Calque_2" data-name="Calque 2" xmlns="http://www.w3.org/2000/svg" viewBox="0 0 437 156">
  <defs>
    <style>
      .cls-1 {
        fill: #2c2d36;
      }

      .cls-2 {
        fill: #f6f5ff;
      }

      .cls-3 {
        fill: #5956e8;
      }
    </style>
  </defs>
  <g id="Calque_1-2" data-name="Calque 1">
    <g>
      <g>
        <rect class="cls-2" x="2" y="2" width="433" height="152" rx="76" ry="76"/>
        <path class="cls-3" d="m359,156H78C34.99,156,0,121.01,0,78S34.99,0,78,0h281c43.01,0,78,34.99,78,78s-34.99,78-78,78ZM78,4C37.2,4,4,37.2,4,78s33.2,74,74,74h281c40.8,0,74-33.2,74-74S399.8,4,359,4H78Z"/>
      </g>
      <g>
        <path class="cls-3" d="m87.3,42.53c-7.88,0-15.59,2.34-22.14,6.72-6.55,4.38-11.66,10.6-14.68,17.89-3.02,7.28-3.81,15.3-2.27,23.03,1.54,7.73,5.33,14.83,10.91,20.41,5.57,5.57,12.68,9.37,20.41,10.91,7.73,1.54,15.75.75,23.03-2.27,7.28-3.02,13.51-8.13,17.89-14.68,4.38-6.55,6.72-14.26,6.72-22.14h-39.86v-39.86Z"/>
        <path class="cls-3" d="m137.7,75.88h-44.13V31.75h2c11.25,0,21.83,4.38,29.79,12.34,7.96,7.96,12.34,18.54,12.34,29.79v2Zm-40.13-4h36.08c-.48-9.43-4.39-18.23-11.12-24.96-6.73-6.73-15.53-10.63-24.96-11.12v36.08Z"/>
      </g>
      <g>
        <g>
          <path class="cls-1" d="m155.55,109.94c-1.17,0-2.04-.33-2.6-.99s-.75-1.57-.58-2.75l3.69-23.31c.17-1.06.57-1.86,1.2-2.4.63-.54,1.47-.82,2.53-.82h9.79c2.32,0,4.19.32,5.62.94,1.43.63,2.48,1.49,3.13,2.58.66,1.09.99,2.32.99,3.69,0,2.15-.68,3.91-2.04,5.28-1.36,1.37-3.14,2.25-5.35,2.62v-.69c1.86.34,3.32,1.12,4.38,2.34,1.06,1.22,1.59,2.7,1.59,4.44,0,2.95-1,5.19-3.01,6.74-2,1.55-4.74,2.32-8.2,2.32h-11.16Zm3.39-4.94h7.38c1.75,0,3.05-.39,3.91-1.18.86-.79,1.29-1.9,1.29-3.33,0-1.14-.39-2-1.16-2.58-.77-.57-1.88-.86-3.31-.86h-6.87l-1.25,7.94Zm2.06-12.88h6.57c1.72,0,3.04-.37,3.97-1.12.93-.74,1.4-1.83,1.4-3.26,0-1-.36-1.77-1.07-2.32-.72-.54-1.83-.82-3.35-.82h-6.35l-1.16,7.51Z"/>
          <path class="cls-1" d="m188.35,110.42c-1.32,0-2.51-.31-3.58-.92s-1.93-1.42-2.58-2.43c-.64-1-.97-2.09-.97-3.26,0-1.49.41-2.7,1.25-3.65.83-.94,2.12-1.64,3.86-2.08,1.75-.44,3.98-.67,6.7-.67h3.39l-.52,3.35h-2.75c-1.4,0-2.52.08-3.35.24s-1.43.43-1.8.82c-.37.39-.56.91-.56,1.57,0,.86.29,1.52.88,2,.59.47,1.32.71,2.21.71.83,0,1.57-.17,2.21-.51.64-.34,1.19-.83,1.63-1.46.44-.63.72-1.37.84-2.23l.82-5.02c.2-1.17,0-2.07-.62-2.7-.62-.63-1.65-.95-3.11-.95-.89,0-1.75.09-2.6.26-.84.17-1.72.46-2.64.86-.66.23-1.23.27-1.72.13-.49-.14-.88-.4-1.18-.77-.3-.37-.44-.81-.43-1.31.01-.5.19-.98.54-1.44.34-.46.9-.84,1.67-1.16,1.23-.49,2.46-.83,3.69-1.03,1.23-.2,2.42-.3,3.56-.3,2.4,0,4.29.44,5.67,1.33,1.37.89,2.3,2.08,2.79,3.58.49,1.5.57,3.18.26,5.04l-1.37,8.71c-.14,1.06-.52,1.86-1.12,2.4-.6.54-1.39.82-2.36.82s-1.65-.3-2.1-.9c-.46-.6-.59-1.49-.39-2.66l.34-2.28.21,1.16c-.43,1.09-.99,1.99-1.7,2.7-.7.72-1.48,1.24-2.34,1.57-.86.33-1.77.49-2.75.49Z"/>
          <path class="cls-1" d="m216.09,110.42c-2.35,0-4.3-.41-5.86-1.22-1.56-.82-2.73-1.96-3.5-3.43-.77-1.47-1.16-3.17-1.16-5.09,0-1.57.24-3.09.73-4.55.49-1.46,1.24-2.77,2.25-3.93,1.02-1.16,2.3-2.07,3.86-2.75,1.56-.67,3.38-1.01,5.47-1.01,1,0,1.94.09,2.81.28.87.19,1.7.45,2.47.79.69.29,1.17.66,1.46,1.12.29.46.41.94.36,1.46-.04.52-.2.98-.47,1.4-.27.42-.64.71-1.09.88-.46.17-.96.13-1.5-.13-.63-.32-1.23-.54-1.8-.67-.57-.13-1.16-.19-1.76-.19-1.15,0-2.11.21-2.9.62s-1.42.97-1.89,1.67c-.47.7-.82,1.47-1.05,2.32-.23.84-.34,1.71-.34,2.6,0,1.46.38,2.63,1.14,3.52.76.89,2.01,1.33,3.76,1.33.43,0,.94-.06,1.52-.19.59-.13,1.19-.34,1.82-.62.46-.2.89-.22,1.31-.06.41.16.75.43,1.01.82.26.39.41.82.45,1.29.04.47-.07.94-.34,1.4-.27.46-.72.84-1.35,1.16-.72.37-1.58.67-2.6.88-1.02.21-1.95.32-2.81.32Z"/>
          <path class="cls-1" d="m228.75,110.33c-1.03,0-1.77-.34-2.23-1.01-.46-.67-.6-1.6-.43-2.77l3.82-24.08c.14-1.06.53-1.85,1.16-2.38.63-.53,1.49-.79,2.58-.79,1,0,1.73.34,2.19,1.01.46.67.6,1.61.43,2.81l-2.28,14.47h.09l7.38-7.13c.66-.69,1.25-1.18,1.78-1.48.53-.3,1.18-.45,1.95-.45.89,0,1.53.24,1.93.71.4.47.56,1.06.49,1.76-.07.7-.41,1.37-1.01,2l-7.38,7.25-.09-2.53,5.97,8.07c.52.74.74,1.46.69,2.15-.06.69-.33,1.26-.82,1.72-.49.46-1.15.69-1.98.69-.94,0-1.68-.19-2.21-.58-.53-.39-1.09-1.01-1.7-1.87l-5.5-7.34h-.09l-1.03,6.61c-.34,2.12-1.59,3.18-3.74,3.18Z"/>
          <path class="cls-1" d="m252.92,100.97c-.92,0-1.62-.18-2.1-.54-.49-.36-.73-.87-.73-1.52,0-.89.24-1.61.71-2.17.47-.56,1.15-.84,2.04-.84h8.41c.94,0,1.65.17,2.13.52.47.34.71.87.71,1.59,0,.86-.24,1.57-.71,2.12-.47.56-1.15.84-2.04.84h-8.41Z"/>
          <path class="cls-1" d="m283.02,110.42c-2.78,0-5.2-.53-7.28-1.59-2.08-1.06-3.69-2.59-4.83-4.59-1.15-2-1.72-4.42-1.72-7.26,0-2.58.38-4.95,1.14-7.13.76-2.17,1.85-4.06,3.26-5.65,1.42-1.59,3.11-2.82,5.09-3.69,1.97-.87,4.19-1.31,6.65-1.31,2.8,0,5.24.53,7.32,1.59,2.07,1.06,3.68,2.59,4.81,4.59,1.13,2,1.7,4.41,1.7,7.21,0,2.6-.37,5-1.12,7.17-.74,2.17-1.82,4.06-3.24,5.65-1.42,1.59-3.11,2.82-5.09,3.69-1.98.87-4.21,1.31-6.7,1.31Zm.13-5.67c1.92,0,3.56-.51,4.92-1.54,1.36-1.03,2.4-2.45,3.11-4.27.72-1.82,1.07-3.88,1.07-6.2,0-2.66-.63-4.64-1.89-5.92-1.26-1.29-2.98-1.93-5.15-1.93-1.92,0-3.55.51-4.89,1.52-1.35,1.02-2.38,2.43-3.09,4.23-.72,1.8-1.07,3.89-1.07,6.27,0,2.63.62,4.6,1.87,5.9,1.25,1.3,2.96,1.95,5.13,1.95Z"/>
          <path class="cls-1" d="m306.2,110.33c-1.03,0-1.77-.34-2.23-1.01-.46-.67-.6-1.6-.43-2.77l2.06-12.84h-1.37c-.8,0-1.42-.17-1.85-.52-.43-.34-.64-.83-.64-1.46,0-.89.26-1.59.77-2.1.52-.52,1.22-.77,2.1-.77h2.36l-.73.64.21-1.29c.37-2.55,1.38-4.57,3.03-6.08,1.65-1.5,4.11-2.35,7.41-2.55l1.16-.09c.69-.03,1.22.11,1.59.41.37.3.62.67.73,1.12.11.44.11.91,0,1.4-.11.49-.34.89-.67,1.22-.33.33-.74.52-1.22.58l-1.12.09c-1.37.12-2.4.47-3.09,1.05-.69.59-1.13,1.47-1.33,2.64l-.21,1.37-.43-.52h3.26c.8,0,1.42.17,1.87.52.44.34.67.82.67,1.42,0,.92-.27,1.63-.79,2.15-.53.51-1.24.77-2.12.77h-3.09l-2.15,13.39c-.37,2.15-1.62,3.22-3.74,3.22Z"/>
          <path class="cls-1" d="m321.44,110.33c-1.03,0-1.77-.34-2.23-1.01-.46-.67-.6-1.6-.43-2.77l2.06-12.84h-1.37c-.8,0-1.42-.17-1.85-.52-.43-.34-.64-.83-.64-1.46,0-.89.26-1.59.77-2.1.52-.52,1.22-.77,2.1-.77h2.36l-.73.64.21-1.29c.37-2.55,1.38-4.57,3.03-6.05,1.65-1.49,4.04-2.33,7.19-2.53l1.16-.09c.69-.03,1.22.11,1.59.41s.62.67.75,1.12c.13.44.13.9,0,1.37-.13.47-.35.88-.67,1.22-.31.34-.73.53-1.25.56l-1.12.09c-1.26.12-2.23.47-2.9,1.07-.67.6-1.11,1.47-1.31,2.62l-.21,1.37-.43-.52h11.72c1,0,1.75.27,2.23.79.49.53.64,1.34.47,2.43l-2.4,15.03c-.14,1.06-.52,1.86-1.14,2.4-.62.54-1.48.82-2.6.82-1,0-1.74-.34-2.21-1.01-.47-.67-.62-1.6-.45-2.77l2.06-12.84h-7.9l-2.15,13.39c-.37,2.15-1.62,3.22-3.74,3.22Zm18.59-25.33c-1.06,0-1.86-.27-2.4-.82-.54-.54-.74-1.32-.6-2.32.14-1.09.56-1.92,1.25-2.49.69-.57,1.63-.86,2.83-.86,1.09,0,1.91.28,2.47.84.56.56.75,1.34.58,2.34-.14,1.09-.56,1.91-1.25,2.47-.69.56-1.65.84-2.88.84Z"/>
          <path class="cls-1" d="m355.27,110.42c-2.35,0-4.3-.41-5.86-1.22-1.56-.82-2.73-1.96-3.5-3.43-.77-1.47-1.16-3.17-1.16-5.09,0-1.57.24-3.09.73-4.55.49-1.46,1.24-2.77,2.25-3.93,1.02-1.16,2.3-2.07,3.86-2.75,1.56-.67,3.38-1.01,5.47-1.01,1,0,1.94.09,2.81.28.87.19,1.7.45,2.47.79.69.29,1.17.66,1.46,1.12.29.46.41.94.36,1.46-.04.52-.2.98-.47,1.4-.27.42-.64.71-1.09.88-.46.17-.96.13-1.5-.13-.63-.32-1.23-.54-1.8-.67-.57-.13-1.16-.19-1.76-.19-1.15,0-2.11.21-2.9.62s-1.42.97-1.89,1.67c-.47.7-.82,1.47-1.05,2.32-.23.84-.34,1.71-.34,2.6,0,1.46.38,2.63,1.14,3.52.76.89,2.01,1.33,3.76,1.33.43,0,.94-.06,1.52-.19.59-.13,1.19-.34,1.82-.62.46-.2.89-.22,1.31-.06.41.16.75.43,1.01.82.26.39.41.82.45,1.29.04.47-.07.94-.34,1.4-.27.46-.72.84-1.35,1.16-.72.37-1.58.67-2.6.88-1.02.21-1.95.32-2.81.32Z"/>
          <path class="cls-1" d="m375.71,110.42c-2.2,0-4.12-.41-5.75-1.22-1.63-.82-2.89-1.95-3.78-3.41-.89-1.46-1.33-3.15-1.33-5.07,0-2.4.52-4.52,1.55-6.35,1.03-1.83,2.44-3.28,4.23-4.34,1.79-1.06,3.81-1.59,6.07-1.59,1.77,0,3.28.3,4.51.9,1.23.6,2.2,1.41,2.92,2.43.72,1.02,1.19,2.17,1.44,3.48.24,1.3.29,2.64.15,4.01-.09.66-.27,1.08-.56,1.27-.29.19-.67.28-1.16.28h-13.91l.47-3.35h10.78l-.69.6c.14-1.03.1-1.94-.13-2.73-.23-.79-.66-1.42-1.29-1.89-.63-.47-1.49-.71-2.58-.71s-2.01.25-2.77.75c-.76.5-1.35,1.15-1.78,1.93s-.73,1.65-.9,2.6l-.21,1.5c-.32,1.89,0,3.37.97,4.44s2.43,1.61,4.4,1.61c.74,0,1.55-.09,2.43-.26.87-.17,1.65-.43,2.34-.77.63-.32,1.18-.42,1.65-.32.47.1.84.34,1.09.71.26.37.39.79.41,1.27.01.47-.11.94-.39,1.42-.27.47-.69.87-1.27,1.18-1,.54-2.13.95-3.39,1.22-1.26.27-2.43.41-3.52.41Z"/>
        </g>
        <path class="cls-1" d="m158.84,72c-.94,0-1.65-.26-2.15-.78-.49-.52-.74-1.25-.74-2.18v-20.54c0-.96.25-1.69.74-2.18.52-.49,1.25-.74,2.18-.74h8.99c2.91,0,5.15.74,6.73,2.22,1.58,1.46,2.37,3.49,2.37,6.11s-.79,4.66-2.37,6.14c-1.58,1.48-3.82,2.22-6.73,2.22h-6.18v6.77c0,.94-.25,1.66-.74,2.18-.47.52-1.17.78-2.11.78Zm2.85-14.17h5.22c1.48,0,2.6-.33,3.37-1,.79-.67,1.18-1.64,1.18-2.92s-.39-2.24-1.18-2.89c-.76-.64-1.89-.96-3.37-.96h-5.22v7.77Zm20.88,14.17c-.94,0-1.65-.25-2.15-.74-.49-.49-.74-1.2-.74-2.11v-13.14c0-.91.23-1.6.7-2.07.49-.49,1.17-.74,2.04-.74s1.57.25,2.03.74c.47.47.7,1.16.7,2.07v1.92h-.37c.3-1.48.95-2.63,1.96-3.44,1.01-.81,2.32-1.27,3.92-1.37.62-.05,1.08.11,1.41.48.35.35.53.92.56,1.74.05.76-.11,1.37-.48,1.81-.35.44-.94.72-1.78.81l-.85.07c-1.41.12-2.45.53-3.14,1.22-.67.69-1,1.69-1,3v6.88c0,.91-.25,1.62-.74,2.11-.47.49-1.16.74-2.07.74Zm20.77.07c-1.95,0-3.65-.38-5.11-1.15-1.43-.76-2.54-1.86-3.33-3.29-.79-1.43-1.18-3.12-1.18-5.07,0-1.46.22-2.76.67-3.92.44-1.16,1.09-2.15,1.92-2.96.86-.84,1.89-1.47,3.07-1.89,1.18-.44,2.5-.67,3.96-.67,1.95,0,3.64.38,5.07,1.15,1.46.76,2.58,1.85,3.37,3.26.81,1.41,1.22,3.08,1.22,5.03,0,1.48-.23,2.8-.7,3.96-.44,1.16-1.09,2.16-1.92,3-.84.84-1.86,1.48-3.07,1.92-1.18.42-2.5.63-3.96.63Zm0-4.18c.81,0,1.52-.2,2.11-.59.59-.39,1.06-.97,1.41-1.74.35-.79.52-1.79.52-3,0-1.8-.37-3.12-1.11-3.96-.74-.86-1.71-1.29-2.92-1.29-.79,0-1.49.18-2.11.56-.59.37-1.06.95-1.41,1.74-.32.76-.48,1.75-.48,2.96,0,1.8.37,3.15,1.11,4.03.74.86,1.7,1.3,2.89,1.3Zm15.94,4.11c-.91,0-1.62-.25-2.11-.74-.47-.49-.7-1.2-.7-2.11v-13.14c0-.91.23-1.6.7-2.07.49-.49,1.17-.74,2.04-.74s1.57.25,2.03.74c.47.47.7,1.16.7,2.07v2.37l-.41-1.48c.49-1.13,1.26-2.05,2.29-2.74,1.04-.69,2.26-1.04,3.66-1.04s2.58.33,3.51,1c.94.67,1.6,1.69,2,3.07h-.52c.54-1.26,1.37-2.24,2.48-2.96,1.13-.74,2.43-1.11,3.88-1.11s2.55.28,3.44.85c.91.54,1.59,1.38,2.04,2.52.44,1.11.67,2.53.67,4.25v8.4c0,.91-.25,1.62-.74,2.11-.47.49-1.15.74-2.04.74s-1.62-.25-2.11-.74c-.47-.49-.7-1.2-.7-2.11v-8.21c0-1.21-.2-2.08-.59-2.63-.37-.57-1.01-.85-1.92-.85-1.06,0-1.89.37-2.48,1.11-.59.74-.89,1.79-.89,3.15v7.44c0,.91-.25,1.62-.74,2.11-.47.49-1.15.74-2.04.74s-1.58-.25-2.07-.74c-.49-.49-.74-1.2-.74-2.11v-8.21c0-1.21-.2-2.08-.59-2.63-.37-.57-1.01-.85-1.92-.85-1.06,0-1.89.37-2.48,1.11-.59.74-.89,1.79-.89,3.15v7.44c0,1.9-.93,2.85-2.78,2.85Zm38.73.07c-1.95,0-3.65-.38-5.11-1.15-1.43-.76-2.54-1.86-3.33-3.29-.79-1.43-1.18-3.12-1.18-5.07,0-1.46.22-2.76.67-3.92.44-1.16,1.08-2.15,1.92-2.96.86-.84,1.89-1.47,3.07-1.89,1.18-.44,2.5-.67,3.96-.67,1.95,0,3.64.38,5.07,1.15,1.46.76,2.58,1.85,3.37,3.26.81,1.41,1.22,3.08,1.22,5.03,0,1.48-.24,2.8-.7,3.96-.44,1.16-1.09,2.16-1.92,3-.84.84-1.86,1.48-3.07,1.92-1.18.42-2.5.63-3.96.63Zm0-4.18c.81,0,1.52-.2,2.11-.59.59-.39,1.06-.97,1.41-1.74.35-.79.52-1.79.52-3,0-1.8-.37-3.12-1.11-3.96-.74-.86-1.72-1.29-2.92-1.29-.79,0-1.49.18-2.11.56-.59.37-1.06.95-1.41,1.74-.32.76-.48,1.75-.48,2.96,0,1.8.37,3.15,1.11,4.03.74.86,1.7,1.3,2.89,1.3Zm21.79,4.18c-1.7,0-3.13-.28-4.29-.85-1.13-.57-1.99-1.39-2.55-2.48-.54-1.09-.81-2.45-.81-4.11v-6.96h-1.55c-.69,0-1.23-.19-1.63-.56-.37-.37-.56-.88-.56-1.52,0-.69.18-1.21.56-1.55.39-.37.94-.56,1.63-.56h1.55v-2.81c0-.94.25-1.64.74-2.11.49-.49,1.18-.74,2.07-.74s1.6.25,2.07.74c.47.47.7,1.17.7,2.11v2.81h3.51c.69,0,1.22.19,1.59.56.37.35.55.86.55,1.55,0,.64-.18,1.15-.55,1.52-.37.37-.9.56-1.59.56h-3.51v6.73c0,1.04.24,1.81.7,2.33.49.52,1.27.78,2.33.78.37,0,.72-.04,1.04-.11.32-.07.62-.12.89-.15.35-.02.63.09.85.33.22.22.33.73.33,1.52,0,.59-.1,1.11-.3,1.55-.2.44-.54.76-1.04.96-.32.12-.76.22-1.33.3-.54.1-1.01.15-1.41.15Zm15.3,0c-2.15,0-4-.38-5.55-1.15-1.53-.79-2.71-1.89-3.55-3.29-.81-1.43-1.22-3.11-1.22-5.03s.39-3.52,1.18-4.92c.79-1.43,1.89-2.54,3.29-3.33,1.43-.81,3.05-1.22,4.85-1.22,1.31,0,2.49.22,3.55.67,1.06.42,1.97,1.04,2.74,1.85.76.79,1.34,1.76,1.74,2.92.39,1.13.59,2.4.59,3.81,0,.47-.15.83-.44,1.07-.3.22-.73.33-1.29.33h-11.62v-2.89h9.32l-.59.52c0-1.01-.15-1.85-.44-2.52-.3-.69-.73-1.21-1.29-1.55-.54-.35-1.22-.52-2.04-.52-.91,0-1.69.21-2.33.63-.64.42-1.14,1.02-1.48,1.81-.35.79-.52,1.74-.52,2.85v.3c0,1.87.43,3.26,1.29,4.14.89.89,2.19,1.33,3.92,1.33.59,0,1.27-.07,2.04-.22.76-.15,1.48-.38,2.15-.7.57-.27,1.07-.36,1.52-.26.44.07.79.27,1.04.59.25.32.38.69.41,1.11.05.42-.04.84-.26,1.26-.22.39-.59.73-1.11,1-.84.47-1.79.81-2.85,1.04-1.04.25-2.05.37-3.03.37Z"/>
      </g>
    </g>
  </g>
</svg>