<svg width="377" height="244" viewBox="0 0 377 244" fill="none" xmlns="http://www.w3.org/2000/svg">
<g filter="url(#filter0_i_4_4096)">
<rect width="160.383" height="83.453" rx="13.6921" transform="matrix(0.99993 0.0117992 -0.013219 0.999913 1.32031 0.425659)" fill="url(#paint0_linear_4_4096)" fill-opacity="0.93"/>
</g>
<path d="M26.0468 14.0401L24.9498 81.0582M87.4676 14.9929L86.3706 82.0111M57.2295 14.5238L56.1325 81.542M118.335 15.4718L117.238 82.4899M41.1655 14.2746L40.0686 81.2928M102.901 15.2323L101.804 82.2505M72.3482 14.7584L71.2512 81.7765M133.769 15.7112L132.672 82.7294M12.3909 68.9928L148.146 71.0988M12.86 40.3284L148.615 42.4344M12.6218 54.8625L148.377 56.9685M13.0977 25.7944L148.853 27.9004" stroke="url(#paint1_linear_4_4096)" stroke-width="0.36362"/>
<path d="M14.7874 17.9424L14.3945 20.7926L13.3111 20.7692L14.1902 15.4417L16.2449 18.774L18.4509 15.5338L19.0841 20.894L18.0007 20.8705L17.7393 18.0062L16.2085 20.359L14.7874 17.9424ZM20.6873 19.8884C20.685 19.9854 20.7073 20.0707 20.7541 20.1445C20.801 20.2134 20.8652 20.2681 20.9467 20.3087C21.0332 20.3445 21.1273 20.3635 21.2291 20.3657C21.3745 20.3688 21.5061 20.3426 21.6238 20.2869C21.7415 20.2264 21.8381 20.1412 21.9133 20.0313C21.9887 19.9166 22.0283 19.7792 22.0319 19.6193L22.1382 20.058C22.1333 20.2713 22.0686 20.4493 21.9441 20.5921C21.8244 20.735 21.6692 20.8407 21.4785 20.9094C21.2926 20.9781 21.0979 21.0102 20.8943 21.0058C20.6859 21.0013 20.493 20.9559 20.3155 20.8697C20.1381 20.7834 19.9954 20.6615 19.8875 20.504C19.7845 20.3417 19.7357 20.1467 19.7409 19.9189C19.7484 19.5941 19.8682 19.3397 20.1004 19.1556C20.3325 18.9715 20.657 18.884 21.0739 18.893C21.2872 18.8976 21.4733 18.9234 21.6322 18.9705C21.796 19.0177 21.9329 19.074 22.043 19.1394C22.153 19.2048 22.2316 19.2671 22.2787 19.3264L22.2687 19.7626C22.14 19.6628 21.9939 19.5869 21.8302 19.5349C21.6714 19.483 21.5023 19.4551 21.3229 19.4512C21.1775 19.448 21.0583 19.4649 20.9653 19.5016C20.8724 19.5336 20.8034 19.583 20.7582 19.6499C20.7131 19.712 20.6895 19.7915 20.6873 19.8884ZM20.355 18.521L20.0207 17.8736C20.1974 17.7853 20.4126 17.7027 20.6666 17.6257C20.9206 17.5439 21.2028 17.5064 21.513 17.5131C21.799 17.5193 22.0525 17.566 22.2736 17.6532C22.4946 17.7404 22.6664 17.8654 22.7887 18.028C22.9112 18.1859 22.9698 18.3787 22.9645 18.6065L22.91 20.9767L22.0012 20.957L22.0512 18.7832C22.0533 18.6911 22.0405 18.6132 22.0129 18.5496C21.9854 18.4811 21.9406 18.4243 21.8786 18.3793C21.8214 18.3345 21.7519 18.3014 21.6699 18.2803C21.588 18.2591 21.4961 18.2474 21.3943 18.2452C21.2392 18.2419 21.091 18.2556 20.9496 18.2865C20.8083 18.3174 20.6862 18.356 20.5832 18.4023C20.4803 18.4485 20.4043 18.4881 20.355 18.521ZM24.9681 17.6751L24.8911 21.0195L23.9678 20.9995L24.0447 17.6551L24.9681 17.6751ZM25.9271 18.6778C25.8654 18.6183 25.801 18.5733 25.7338 18.5427C25.6715 18.5074 25.5919 18.4887 25.495 18.4866C25.3787 18.4841 25.2786 18.5135 25.1947 18.5747C25.1109 18.6359 25.0458 18.7242 24.9995 18.8396C24.9582 18.9503 24.9356 19.0856 24.932 19.2455L24.6762 18.9781C24.6824 18.7115 24.7387 18.4775 24.8452 18.2762C24.9517 18.07 25.0888 17.908 25.2564 17.7904C25.4241 17.668 25.5952 17.6086 25.7697 17.6124C25.8909 17.615 26.0043 17.6393 26.1099 17.6852C26.2204 17.7313 26.3086 17.7986 26.3744 17.8873L25.9271 18.6778ZM27.0912 15.3933L28.0001 15.4129L27.8696 21.0839L26.9607 21.0642L27.0912 15.3933ZM29.1753 17.766L30.3022 17.7904L28.8309 19.1407L30.3707 21.138L29.251 21.1138L27.7039 19.1163L29.1753 17.766ZM32.5178 21.2571C32.1542 21.2493 31.8384 21.1697 31.5703 21.0184C31.3022 20.8671 31.096 20.6614 30.9516 20.4013C30.8122 20.1364 30.7466 19.8271 30.7548 19.4732C30.763 19.1145 30.8428 18.8083 30.9941 18.5546C31.1504 18.2961 31.3659 18.0995 31.6406 17.9648C31.9154 17.8253 32.2369 17.7595 32.6053 17.7674C32.9737 17.7754 33.2848 17.85 33.5386 17.9913C33.7973 18.1278 33.9916 18.326 34.1214 18.5858C34.2513 18.8408 34.3121 19.1476 34.3039 19.5063C34.3029 19.5499 34.2994 19.5959 34.2934 19.6443C34.2923 19.6928 34.289 19.7315 34.2835 19.7605L31.2879 19.6957L31.3013 19.1141L33.4753 19.1611L33.2131 19.49C33.2332 19.4613 33.251 19.4229 33.2667 19.3748C33.2873 19.3219 33.298 19.2785 33.2988 19.2445C33.3026 19.0797 33.2743 18.9385 33.2139 18.8208C33.1585 18.7032 33.0758 18.6093 32.9658 18.539C32.8559 18.4688 32.7258 18.432 32.5756 18.4287C32.3914 18.4248 32.2353 18.4626 32.1074 18.5423C31.9844 18.6172 31.8872 18.7339 31.8156 18.8924C31.749 19.0461 31.7107 19.2393 31.7005 19.4718C31.6953 19.6948 31.7225 19.8845 31.7819 20.041C31.8462 20.1976 31.9429 20.3185 32.0718 20.4037C32.2008 20.4889 32.3574 20.5335 32.5416 20.5375C32.75 20.542 32.9278 20.5071 33.075 20.4326C33.2272 20.3535 33.3536 20.235 33.4542 20.0771L34.2699 20.3494C34.0882 20.6606 33.8501 20.8931 33.5555 21.0468C33.266 21.1957 32.9201 21.2658 32.5178 21.2571ZM34.8044 17.8877L36.8693 17.9324L36.851 18.7248L34.7862 18.6802L34.8044 17.8877ZM35.4055 16.7369L36.3144 16.7565L36.2107 21.2642L35.3018 21.2446L35.4055 16.7369ZM37.5385 16.652C37.542 16.4969 37.6007 16.3721 37.7144 16.2776C37.8282 16.1782 37.9627 16.1302 38.1178 16.1336C38.2729 16.1369 38.4026 16.1906 38.5069 16.2947C38.6162 16.3941 38.669 16.5213 38.6654 16.6764C38.662 16.8267 38.6033 16.9515 38.4895 17.0509C38.3805 17.1503 38.2485 17.1984 38.0934 17.195C37.9383 17.1917 37.8062 17.1379 37.697 17.0337C37.5879 16.9295 37.535 16.8023 37.5385 16.652ZM37.6105 17.9484L38.5266 17.9682L38.4497 21.3126L37.5335 21.2928L37.6105 17.9484ZM41.8373 19.3491C41.8424 19.1261 41.8027 18.9556 41.7181 18.8373C41.6335 18.7191 41.4943 18.6579 41.3004 18.6537C41.1695 18.6509 41.0525 18.6775 40.9494 18.7334C40.8464 18.7845 40.7671 18.8604 40.7114 18.9611C40.6557 19.0617 40.6263 19.1823 40.6231 19.3229L40.5762 21.3586L39.631 21.3382L39.708 17.9937L40.6532 18.0142L40.6415 18.5231C40.7476 18.3363 40.8842 18.1962 41.0512 18.1028C41.2232 18.0047 41.428 17.9582 41.6655 17.9633C42.0629 17.9719 42.356 18.0922 42.5446 18.3242C42.7334 18.5514 42.8231 18.8661 42.8139 19.2684L42.7647 21.4059L41.7904 21.3848L41.8373 19.3491ZM43.7089 21.6591L44.6322 21.679C44.6337 21.8246 44.6697 21.949 44.74 22.0524C44.8103 22.1606 44.9078 22.2451 45.0325 22.306C45.1571 22.3669 45.3043 22.3992 45.474 22.4028C45.6291 22.4062 45.7753 22.373 45.9127 22.3032C46.0549 22.2335 46.169 22.1245 46.2549 21.976C46.3456 21.8276 46.3935 21.6395 46.3988 21.4117L46.4741 18.14L47.3829 18.1597L47.3076 21.4314C47.2981 21.8434 47.2079 22.1809 47.037 22.4439C46.8709 22.707 46.6507 22.8962 46.3765 23.0115C46.1022 23.1317 45.8051 23.1883 45.4851 23.1814C45.0974 23.173 44.7741 23.103 44.5152 22.9713C44.2563 22.8445 44.0591 22.6656 43.9238 22.4348C43.7932 22.2089 43.7216 21.9503 43.7089 21.6591ZM43.6879 19.7237C43.6965 19.3505 43.7788 19.0395 43.9349 18.7907C44.0911 18.5371 44.2943 18.3475 44.5445 18.2219C44.7947 18.0964 45.0579 18.0366 45.3342 18.0426C45.6154 18.0487 45.861 18.1219 46.0712 18.2622C46.2862 18.4027 46.4513 18.6026 46.5666 18.8621C46.6868 19.1169 46.7427 19.4261 46.7343 19.7896C46.7261 20.1483 46.656 20.4547 46.5241 20.7088C46.397 20.9631 46.2228 21.1557 46.0016 21.2867C45.7853 21.413 45.5366 21.4731 45.2554 21.467C44.9791 21.461 44.7189 21.39 44.4747 21.2537C44.2305 21.1175 44.0362 20.9218 43.8917 20.6665C43.7474 20.4063 43.6794 20.0921 43.6879 19.7237ZM44.6622 19.7448C44.6576 19.9435 44.6949 20.114 44.7741 20.2564C44.8534 20.3939 44.9625 20.5005 45.1013 20.5762C45.2402 20.652 45.3897 20.6916 45.5496 20.695C45.6902 20.6981 45.8267 20.6671 45.9591 20.6021C46.0965 20.5323 46.208 20.4304 46.2935 20.2965C46.384 20.1578 46.4316 19.9867 46.4362 19.7831C46.4398 19.628 46.4187 19.4918 46.3729 19.3744C46.3271 19.257 46.2615 19.1586 46.176 19.0792C46.0954 18.9999 46.0046 18.9397 45.9037 18.8987C45.803 18.8529 45.6993 18.8288 45.5926 18.8265C45.4327 18.8231 45.2816 18.8562 45.1393 18.9258C44.9971 18.9955 44.8831 19.0997 44.7975 19.2385C44.712 19.3725 44.6669 19.5412 44.6622 19.7448ZM50.9567 20.4264C51.0943 20.5603 51.2227 20.6698 51.342 20.7548C51.4614 20.835 51.5739 20.8956 51.6797 20.9367C51.7903 20.9779 51.894 20.9995 51.991 21.0016C52.117 21.0043 52.2146 20.9798 52.2836 20.9279C52.3528 20.8712 52.3886 20.7944 52.3908 20.6975C52.3928 20.6102 52.3654 20.5369 52.3086 20.4775C52.2567 20.4133 52.178 20.3558 52.0725 20.3051C51.9669 20.2543 51.8324 20.2005 51.6688 20.1436C51.5151 20.0821 51.3664 20.0109 51.2227 19.9303C51.0792 19.8447 50.9605 19.7355 50.8665 19.6025C50.7776 19.4648 50.7355 19.2917 50.7403 19.0833C50.7449 18.8846 50.802 18.7185 50.9118 18.5851C51.0216 18.4468 51.167 18.3457 51.3479 18.2817C51.5338 18.213 51.7382 18.1811 51.9612 18.1859C52.1502 18.19 52.3266 18.218 52.4903 18.2701C52.654 18.3221 52.8051 18.3908 52.9438 18.4763C53.0826 18.5569 53.2041 18.6516 53.3083 18.7606L52.8805 19.3332C52.7623 19.1998 52.6193 19.09 52.4516 19.0039C52.2887 18.9179 52.1272 18.8732 51.9673 18.8698C51.8606 18.8675 51.7753 18.8875 51.7113 18.9297C51.6522 18.9672 51.6218 19.0272 51.6199 19.1096C51.6182 19.1823 51.6458 19.2484 51.7026 19.3078C51.7644 19.3625 51.8505 19.4128 51.961 19.4588C52.0763 19.505 52.206 19.5611 52.3499 19.6273C52.5277 19.699 52.6907 19.7801 52.839 19.8706C52.9922 19.9564 53.1134 20.0633 53.2026 20.1913C53.2918 20.3193 53.3341 20.4851 53.3294 20.6887C53.3217 21.0231 53.2066 21.2825 52.9841 21.4668C52.7618 21.6463 52.4591 21.7319 52.0762 21.7236C51.8387 21.7184 51.6213 21.6822 51.424 21.6149C51.2316 21.5477 51.0566 21.4615 50.8989 21.3562C50.7463 21.2463 50.6083 21.1293 50.4851 21.0054L50.9567 20.4264ZM53.7878 18.2981L55.8526 18.3428L55.8344 19.1352L53.7695 19.0906L53.7878 18.2981ZM54.3889 17.1473L55.2978 17.1669L55.194 21.6746L54.2852 21.655L54.3889 17.1473ZM57.4591 18.3775L57.3821 21.7219L56.4587 21.7019L56.5357 18.3575L57.4591 18.3775ZM58.418 19.3802C58.3564 19.3207 58.2919 19.2757 58.2247 19.2451C58.1625 19.2098 58.0829 19.1911 57.986 19.189C57.8696 19.1865 57.7696 19.2159 57.6857 19.2771C57.6018 19.3383 57.5368 19.4266 57.4905 19.542C57.4491 19.6527 57.4266 19.788 57.4229 19.9479L57.1672 19.6805C57.1733 19.4139 57.2297 19.1799 57.3361 18.9786C57.4427 18.7724 57.5798 18.6104 57.7474 18.4928C57.9151 18.3704 58.0862 18.311 58.2607 18.3148C58.3819 18.3174 58.4953 18.3417 58.6009 18.3876C58.7114 18.4336 58.7996 18.501 58.8654 18.5897L58.418 19.3802ZM60.1664 20.7419C60.1641 20.8388 60.1864 20.9242 60.2332 20.9979C60.2801 21.0668 60.3443 21.1216 60.4258 21.1621C60.5123 21.1979 60.6064 21.217 60.7082 21.2192C60.8536 21.2223 60.9852 21.196 61.1028 21.1404C61.2206 21.0799 61.3172 20.9947 61.3924 20.8848C61.4678 20.77 61.5073 20.6327 61.511 20.4727L61.6173 20.9115C61.6124 21.1247 61.5477 21.3028 61.4232 21.4456C61.3035 21.5885 61.1483 21.6942 60.9576 21.7628C60.7717 21.8315 60.577 21.8637 60.3734 21.8593C60.165 21.8548 59.9721 21.8094 59.7946 21.7231C59.6172 21.6369 59.4745 21.515 59.3666 21.3575C59.2636 21.1952 59.2147 21.0002 59.22 20.7724C59.2275 20.4476 59.3473 20.1932 59.5794 20.0091C59.8116 19.825 60.1361 19.7374 60.553 19.7464C60.7662 19.751 60.9524 19.7769 61.1113 19.824C61.2751 19.8712 61.412 19.9275 61.5221 19.9929C61.6321 20.0583 61.7107 20.1206 61.7578 20.1798L61.7478 20.6161C61.6191 20.5163 61.473 20.4404 61.3093 20.3884C61.1504 20.3364 60.9814 20.3085 60.802 20.3046C60.6566 20.3015 60.5374 20.3183 60.4444 20.3551C60.3515 20.387 60.2825 20.4365 60.2373 20.5034C60.1922 20.5655 60.1686 20.645 60.1664 20.7419ZM59.8341 19.3745L59.4998 18.7271C59.6764 18.6388 59.8917 18.5562 60.1457 18.4792C60.3997 18.3974 60.6819 18.3599 60.9921 18.3666C61.2781 18.3727 61.5316 18.4195 61.7527 18.5067C61.9737 18.5939 62.1454 18.7188 62.2678 18.8815C62.3903 19.0393 62.4489 19.2322 62.4436 19.46L62.3891 21.8301L61.4802 21.8105L61.5303 19.6366C61.5324 19.5445 61.5196 19.4667 61.492 19.403C61.4645 19.3345 61.4197 19.2778 61.3577 19.2328C61.3005 19.1879 61.231 19.1549 61.149 19.1337C61.0671 19.1126 60.9752 19.1009 60.8734 19.0987C60.7183 19.0953 60.5701 19.1091 60.4287 19.14C60.2874 19.1709 60.1652 19.2095 60.0623 19.2557C59.9594 19.302 59.8834 19.3416 59.8341 19.3745ZM63.0948 18.4993L65.1597 18.544L65.1415 19.3364L63.0766 19.2918L63.0948 18.4993ZM63.696 17.3485L64.6048 17.3681L64.5011 21.8758L63.5923 21.8562L63.696 17.3485ZM67.3419 22.01C66.9784 22.0021 66.6625 21.9225 66.3944 21.7712C66.1263 21.62 65.9201 21.4143 65.7758 21.1541C65.6364 20.8892 65.5708 20.5799 65.5789 20.2261C65.5872 19.8674 65.6669 19.5612 65.8183 19.3074C65.9745 19.0489 66.19 18.8523 66.4647 18.7176C66.7395 18.5781 67.0611 18.5123 67.4295 18.5203C67.7978 18.5282 68.1089 18.6029 68.3627 18.7441C68.6214 18.8807 68.8157 19.0788 68.9455 19.3387C69.0754 19.5936 69.1363 19.9005 69.128 20.2591C69.127 20.3028 69.1235 20.3488 69.1176 20.3971C69.1164 20.4456 69.1131 20.4843 69.1076 20.5133L66.1121 20.4485L66.1255 19.8669L68.2994 19.9139L68.0372 20.2428C68.0573 20.2142 68.0752 20.1758 68.0908 20.1276C68.1114 20.0747 68.1221 20.0313 68.1229 19.9974C68.1267 19.8326 68.0984 19.6913 68.0381 19.5736C67.9826 19.456 67.8999 19.3621 67.79 19.2919C67.68 19.2216 67.55 19.1848 67.3997 19.1816C67.2155 19.1776 67.0594 19.2154 66.9315 19.2951C66.8086 19.3701 66.7113 19.4868 66.6398 19.6452C66.5732 19.799 66.5348 19.9921 66.5246 20.2247C66.5195 20.4476 66.5466 20.6374 66.6061 20.7938C66.6704 20.9504 66.767 21.0713 66.896 21.1565C67.0249 21.2417 67.1815 21.2864 67.3657 21.2903C67.5741 21.2948 67.752 21.2599 67.8992 21.1855C68.0513 21.1063 68.1777 20.9878 68.2783 20.83L69.0941 21.1022C68.9123 21.4135 68.6742 21.646 68.3797 21.7996C68.0901 21.9485 67.7442 22.0187 67.3419 22.01ZM69.8152 22.2235L70.7386 22.2434C70.7401 22.3889 70.7761 22.5134 70.8464 22.6167C70.9167 22.7249 71.0141 22.8095 71.1388 22.8704C71.2635 22.9313 71.4107 22.9635 71.5803 22.9672C71.7354 22.9706 71.8817 22.9373 72.0191 22.8676C72.1613 22.7979 72.2754 22.6888 72.3612 22.5404C72.4519 22.392 72.4999 22.2039 72.5052 21.9761L72.5804 18.7044L73.4893 18.724L73.414 21.9957C73.4045 22.4077 73.3143 22.7452 73.1434 23.0083C72.9773 23.2714 72.7571 23.4606 72.4829 23.5759C72.2086 23.6961 71.9114 23.7527 71.5915 23.7458C71.2038 23.7374 70.8804 23.6674 70.6216 23.5357C70.3626 23.4088 70.1655 23.23 70.0302 22.9992C69.8996 22.7733 69.8279 22.5147 69.8152 22.2235ZM69.7943 20.2881C69.8029 19.9149 69.8852 19.6039 70.0413 19.3551C70.1974 19.1014 70.4006 18.9118 70.6509 18.7863C70.9011 18.6608 71.1643 18.601 71.4406 18.607C71.7217 18.6131 71.9674 18.6863 72.1775 18.8266C72.3925 18.967 72.5577 19.167 72.6729 19.4265C72.7932 19.6813 72.8491 19.9904 72.8407 20.3539C72.8325 20.7126 72.7624 21.019 72.6304 21.2732C72.5034 21.5275 72.3292 21.7201 72.1079 21.8511C71.8917 21.9774 71.643 22.0375 71.3618 22.0314C71.0855 22.0254 70.8253 21.9543 70.5811 21.8181C70.3369 21.6819 70.1426 21.4861 69.9981 21.2309C69.8538 20.9707 69.7858 20.6565 69.7943 20.2881ZM70.7686 20.3092C70.764 20.5079 70.8013 20.6784 70.8805 20.8208C70.9598 20.9583 71.0688 21.0649 71.2077 21.1406C71.3466 21.2164 71.4961 21.256 71.656 21.2594C71.7966 21.2625 71.9331 21.2315 72.0655 21.1664C72.2029 21.0967 72.3144 20.9948 72.3999 20.8609C72.4904 20.7222 72.5379 20.5511 72.5426 20.3475C72.5462 20.1924 72.5251 20.0562 72.4793 19.9388C72.4335 19.8214 72.3679 19.723 72.2824 19.6436C72.2018 19.5642 72.111 19.5041 72.0101 19.4631C71.9093 19.4173 71.8056 19.3932 71.699 19.3909C71.539 19.3875 71.3879 19.4206 71.2457 19.4902C71.1035 19.5599 70.9895 19.6641 70.9039 19.8029C70.8184 19.9368 70.7733 20.1056 70.7686 20.3092ZM77.7692 18.8165L75.4743 23.7133L74.5073 23.6924L75.3952 21.7767L74.0757 18.7367L75.1227 18.7593L76.1375 21.4436L75.6725 21.419L76.7877 18.7953L77.7692 18.8165Z" fill="#353E6C"/>
<path d="M129.109 20.2096L129.131 19.2717L131.374 18.8474L131.255 24.024L130.244 24.0021L130.338 19.9161L129.109 20.2096ZM136.514 22.4937C136.508 22.7942 136.446 23.0524 136.329 23.2681C136.213 23.4838 136.058 23.6599 135.866 23.7963C135.674 23.9328 135.461 24.0325 135.226 24.0953C134.992 24.1581 134.751 24.1869 134.504 24.1815C134.194 24.1748 133.916 24.1324 133.671 24.0544C133.43 23.9764 133.219 23.8773 133.037 23.757C132.856 23.6318 132.697 23.4975 132.559 23.3539L133.065 22.5574C133.183 22.6812 133.312 22.793 133.45 22.893C133.593 22.9931 133.742 23.0739 133.895 23.1354C134.049 23.1921 134.197 23.222 134.337 23.225C134.555 23.2297 134.74 23.1998 134.892 23.1351C135.049 23.0706 135.17 22.9763 135.255 22.852C135.34 22.7229 135.385 22.5639 135.39 22.3749C135.394 22.1907 135.349 22.0345 135.255 21.9064C135.166 21.7784 135.042 21.6811 134.883 21.6147C134.73 21.5435 134.561 21.5059 134.377 21.5019C134.241 21.499 134.098 21.508 133.947 21.529C133.796 21.5451 133.64 21.5781 133.479 21.628C133.323 21.6731 133.156 21.7422 132.98 21.8354L133.744 18.9859L136.514 19.0458L136.493 19.9473L134.494 19.9041L134.164 20.9445C134.292 20.8793 134.426 20.8362 134.567 20.815C134.713 20.789 134.861 20.7777 135.012 20.7809C135.288 20.7869 135.541 20.8603 135.77 21.001C136 21.1418 136.182 21.3397 136.317 21.5947C136.457 21.8451 136.522 22.1447 136.514 22.4937ZM137.229 20.2324C137.235 19.99 137.296 19.7731 137.412 19.5817C137.532 19.3903 137.693 19.241 137.895 19.1338C138.096 19.0218 138.32 18.9685 138.568 18.9738C138.82 18.9793 139.041 19.0422 139.233 19.1628C139.429 19.2785 139.58 19.4346 139.687 19.6309C139.794 19.8271 139.845 20.0465 139.839 20.2888C139.834 20.5215 139.773 20.736 139.657 20.9323C139.541 21.1237 139.383 21.2755 139.181 21.3875C138.985 21.4997 138.76 21.553 138.508 21.5476C138.261 21.5422 138.04 21.4792 137.844 21.3586C137.647 21.238 137.493 21.0795 137.382 20.8831C137.275 20.6819 137.224 20.465 137.229 20.2324ZM138.015 20.2494C138.012 20.3463 138.032 20.4389 138.074 20.5271C138.115 20.6104 138.174 20.6771 138.251 20.7273C138.327 20.7774 138.419 20.8037 138.525 20.806C138.632 20.8083 138.722 20.786 138.796 20.7391C138.875 20.6923 138.937 20.6282 138.982 20.5467C139.028 20.4604 139.052 20.3688 139.054 20.2718C139.057 20.1701 139.037 20.0775 138.995 19.9942C138.953 19.9108 138.894 19.8441 138.818 19.7939C138.746 19.739 138.657 19.7104 138.551 19.7081C138.444 19.7058 138.351 19.7305 138.273 19.7821C138.194 19.8289 138.132 19.893 138.086 19.9745C138.041 20.056 138.017 20.1476 138.015 20.2494ZM140.474 23.0522C140.48 22.8146 140.54 22.6002 140.656 22.4087C140.777 22.2125 140.938 22.0608 141.14 21.9536C141.341 21.8416 141.565 21.7882 141.813 21.7936C142.065 21.799 142.286 21.862 142.477 21.9825C142.674 22.0983 142.825 22.2568 142.932 22.4579C143.039 22.6542 143.09 22.8711 143.084 23.1086C143.079 23.3461 143.018 23.5606 142.902 23.752C142.786 23.9435 142.628 24.0953 142.426 24.2073C142.23 24.3194 142.005 24.3728 141.753 24.3673C141.506 24.362 141.285 24.299 141.088 24.1784C140.892 24.0577 140.738 23.8992 140.627 23.7028C140.52 23.5065 140.469 23.2897 140.474 23.0522ZM141.259 23.0691C141.257 23.1661 141.277 23.2586 141.319 23.3468C141.36 23.4302 141.419 23.4969 141.496 23.5471C141.572 23.5972 141.664 23.6234 141.77 23.6257C141.877 23.628 141.967 23.6057 142.041 23.5588C142.12 23.512 142.182 23.4479 142.227 23.3665C142.273 23.2802 142.297 23.1885 142.299 23.0916C142.302 22.9898 142.282 22.8973 142.24 22.8139C142.198 22.7306 142.139 22.6638 142.063 22.6137C141.991 22.5636 141.902 22.5375 141.796 22.5352C141.689 22.5329 141.596 22.5551 141.518 22.6019C141.439 22.6487 141.377 22.7128 141.331 22.7943C141.286 22.8757 141.262 22.9673 141.259 23.0691ZM141.597 19.1557L142.549 19.1763L138.724 24.1854L137.772 24.1649L141.597 19.1557Z" fill="#45B751"/>
<path d="M147.566 19.2254L149.964 22.2422L145.152 22.2375L147.566 19.2254Z" fill="#45B751"/>
<path d="M41.7562 46.4173C30.2275 39.7653 17.1723 42.2607 12.0858 44.34L11.7328 66.3493L147.396 69.1853L147.624 54.9629C144.723 49.8213 135.582 41.2504 122.226 48.0994C105.531 56.6608 95.3573 52.6935 87.4666 45.9158C81.1541 40.4936 72.9368 43.8561 69.6172 46.2151C65.1338 49.0542 53.2849 53.0692 41.7562 46.4173Z" fill="url(#paint2_linear_4_4096)"/>
<path d="M12.0858 44.3359C17.1606 42.2597 30.1857 39.7676 41.6876 46.4097C53.1896 53.0517 65.0112 49.0423 69.4842 46.2073C72.7962 43.8517 80.9945 40.494 87.2924 45.9081C95.1647 52.6757 105.314 56.6371 121.971 48.088C135.297 41.2487 144.416 49.8069 147.311 54.9409" stroke="#24B8D2" stroke-width="0.72724" stroke-linecap="round" stroke-linejoin="round"/>
<path d="M65.5307 49.7818C39.0049 3.55751 13.0764 57.1985 12.016 57.1797L11.9097 62.7262C11.7733 69.8346 17.4254 75.6994 24.5339 75.8258L134.299 77.7768C141.408 77.9032 147.281 72.2432 147.417 65.1348L147.791 45.6223C134.14 68.0891 126.316 63.0519 124.111 57.725C118.977 46.9284 105.252 29.7711 91.4232 47.5147C77.5945 65.2583 68.3996 56.4193 65.5307 49.7818Z" fill="url(#paint3_linear_4_4096)"/>
<path d="M12.1504 57.1519C13.2082 57.1707 39.076 3.58713 65.537 49.7608C68.3989 56.391 77.5715 65.2202 91.3675 47.4955C105.163 29.7708 118.855 46.9091 123.977 57.6939C126.177 63.0151 133.981 68.0466 147.601 45.6038" stroke="#7F7CFF" stroke-width="0.727241" stroke-linecap="round" stroke-linejoin="round"/>
<g filter="url(#filter1_i_4_4096)">
<rect width="130.384" height="63.8264" rx="13.6921" transform="matrix(0.999992 0.00412006 -0.00554003 0.999985 174.209 17.0459)" fill="url(#paint4_linear_4_4096)" fill-opacity="0.93"/>
</g>
<path d="M233.516 46.1759L233.568 44.0711L239.938 44.219C239.951 45.2046 239.811 46.1312 239.519 46.9988C239.239 47.8667 238.807 48.6326 238.225 49.2964C237.654 49.9482 236.952 50.4553 236.118 50.8178C235.284 51.1802 234.338 51.3491 233.279 51.3245C232.282 51.3013 231.363 51.1137 230.522 50.7617C229.693 50.4099 228.972 49.9251 228.359 49.3074C227.758 48.69 227.296 47.9588 226.972 47.1138C226.66 46.2691 226.517 45.3482 226.541 44.3512C226.566 43.3542 226.76 42.4473 227.125 41.6307C227.503 40.802 228.013 40.0995 228.655 39.5232C229.297 38.947 230.047 38.5087 230.904 38.2084C231.761 37.9081 232.689 37.7696 233.686 37.7927C234.572 37.8133 235.363 37.9548 236.058 38.2173C236.766 38.4801 237.386 38.8393 237.916 39.295C238.46 39.7387 238.921 40.2667 239.3 40.8789L237.015 42.1375C236.709 41.5639 236.271 41.098 235.701 40.7399C235.143 40.3698 234.452 40.1752 233.628 40.156C232.852 40.138 232.14 40.3 231.491 40.6421C230.842 40.9719 230.319 41.4585 229.922 42.102C229.536 42.7458 229.333 43.517 229.311 44.4155C229.289 45.3018 229.454 46.0876 229.807 46.7732C230.16 47.4465 230.646 47.975 231.264 48.3589C231.895 48.743 232.611 48.9443 233.411 48.9629C233.94 48.9752 234.416 48.9185 234.838 48.7929C235.26 48.6549 235.622 48.4601 235.924 48.2084C236.238 47.9571 236.503 47.6677 236.721 47.3402C236.938 47.0128 237.107 46.6534 237.228 46.2621L233.516 46.1759ZM244.256 42.7306L244.048 51.2236L241.703 51.1692L241.911 42.6761L244.256 42.7306ZM246.688 45.281C246.531 45.1296 246.368 45.015 246.197 44.9371C246.039 44.8472 245.837 44.7994 245.591 44.7937C245.296 44.7868 245.041 44.861 244.828 45.0161C244.615 45.1713 244.449 45.3953 244.331 45.6881C244.226 45.9689 244.168 46.3124 244.158 46.7186L243.51 46.0385C243.527 45.3615 243.671 44.7676 243.942 44.2566C244.213 43.7333 244.562 43.3227 244.988 43.0247C245.414 42.7144 245.849 42.5644 246.292 42.5747C246.6 42.5818 246.888 42.6439 247.156 42.761C247.436 42.8784 247.66 43.0498 247.827 43.2754L246.688 45.281ZM248.159 47.0702C248.18 46.184 248.403 45.4132 248.825 44.758C249.26 44.103 249.833 43.5991 250.543 43.2461C251.266 42.8934 252.077 42.7275 252.976 42.7484C253.874 42.7693 254.67 42.9725 255.362 43.358C256.067 43.7439 256.615 44.2739 257.004 44.948C257.407 45.6224 257.597 46.4027 257.575 47.2889C257.554 48.1628 257.325 48.9334 256.89 49.6007C256.468 50.2559 255.895 50.7599 255.172 51.1126C254.461 51.4655 253.656 51.6316 252.758 51.6107C251.859 51.5898 251.058 51.3865 250.353 51.0006C249.66 50.6151 249.113 50.0851 248.711 49.4107C248.321 48.7243 248.137 47.9441 248.159 47.0702ZM250.596 47.1268C250.584 47.6068 250.672 48.0338 250.86 48.4076C251.06 48.7694 251.33 49.059 251.67 49.2762C252.01 49.4812 252.389 49.5885 252.807 49.5982C253.226 49.6079 253.61 49.5183 253.959 49.3294C254.309 49.1282 254.587 48.8513 254.793 48.499C255.011 48.1346 255.126 47.7123 255.138 47.2323C255.15 46.7523 255.055 46.3252 254.855 45.9511C254.667 45.5772 254.404 45.2878 254.064 45.0829C253.724 44.8779 253.345 44.7706 252.926 44.7609C252.508 44.7512 252.124 44.8408 251.774 45.0297C251.425 45.2186 251.141 45.4953 250.923 45.8597C250.716 46.2244 250.608 46.6468 250.596 47.1268ZM257.948 43.0486L260.496 43.1078L262.245 47.8592L264.777 42.5607L267.137 47.9913L269.137 43.3085L271.666 43.3673L267.289 52.3362L264.689 46.863L261.898 52.211L257.948 43.0486Z" fill="#303030"/>
<path d="M228.268 56.4395L227.806 59.7477L226.549 59.7185L227.579 53.5353L229.958 57.4077L232.525 53.6502L233.25 59.8742L231.993 59.845L231.695 56.5191L229.913 59.2477L228.268 56.4395ZM234.902 58.7049C234.9 58.8174 234.925 58.9166 234.98 59.0023C235.034 59.0824 235.108 59.146 235.203 59.1933C235.303 59.235 235.412 59.2572 235.531 59.26C235.699 59.2639 235.852 59.2337 235.989 59.1693C236.126 59.0993 236.238 59.0005 236.326 58.8731C236.413 58.74 236.459 58.5806 236.464 58.3949L236.587 58.9045C236.581 59.1521 236.505 59.3586 236.36 59.5242C236.221 59.6898 236.041 59.8123 235.819 59.8916C235.603 59.9711 235.377 60.008 235.141 60.0025C234.899 59.9969 234.675 59.9439 234.469 59.8434C234.263 59.7429 234.098 59.6011 233.973 59.418C233.854 59.2295 233.797 59.003 233.804 58.7385C233.813 58.3615 233.953 58.0663 234.222 57.853C234.492 57.6397 234.869 57.5387 235.353 57.55C235.601 57.5557 235.817 57.5861 236.001 57.641C236.191 57.6961 236.35 57.7617 236.478 57.8379C236.605 57.914 236.696 57.9865 236.751 58.0553L236.739 58.5618C236.589 58.4457 236.42 58.3573 236.23 58.2966C236.046 58.236 235.849 58.2033 235.641 58.1985C235.472 58.1945 235.334 58.2139 235.226 58.2564C235.118 58.2933 235.038 58.3505 234.985 58.4281C234.933 58.5001 234.905 58.5924 234.902 58.7049ZM234.519 57.1168L234.132 56.3646C234.338 56.2624 234.588 56.1669 234.883 56.078C235.178 55.9835 235.505 55.9405 235.865 55.9488C236.197 55.9565 236.492 56.0112 236.748 56.1129C237.005 56.2146 237.204 56.36 237.346 56.549C237.487 56.7325 237.555 56.9565 237.549 57.2209L237.481 59.9725L236.426 59.9479L236.488 57.4243C236.491 57.3174 236.476 57.227 236.444 57.153C236.412 57.0735 236.36 57.0075 236.288 56.9552C236.222 56.903 236.141 56.8645 236.046 56.8398C235.951 56.815 235.844 56.8013 235.726 56.7986C235.546 56.7944 235.374 56.8101 235.21 56.8457C235.046 56.8813 234.904 56.9258 234.784 56.9794C234.665 57.0329 234.576 57.0787 234.519 57.1168ZM239.665 56.1384L239.57 60.021L238.498 59.9961L238.593 56.1135L239.665 56.1384ZM240.777 57.3044C240.705 57.2351 240.631 57.1827 240.553 57.1471C240.48 57.106 240.388 57.0842 240.276 57.0816C240.14 57.0784 240.024 57.1123 239.927 57.1833C239.829 57.2542 239.754 57.3566 239.7 57.4905C239.651 57.6188 239.625 57.7759 239.62 57.9615L239.324 57.6506C239.332 57.3412 239.397 57.0696 239.521 56.836C239.646 56.5968 239.805 56.4091 240 56.2729C240.195 56.131 240.393 56.0625 240.596 56.0672C240.737 56.0704 240.868 56.0988 240.991 56.1523C241.119 56.206 241.221 56.2844 241.298 56.3875L240.777 57.3044ZM241.923 53.4885L242.978 53.513L242.816 60.0964L241.761 60.0719L241.923 53.4885ZM244.338 56.247L245.647 56.2774L243.936 57.8422L245.72 60.1638L244.42 60.1336L242.628 57.8118L244.338 56.247ZM248.001 60.3013C247.579 60.2915 247.213 60.1985 246.902 60.0224C246.591 59.8463 246.352 59.6071 246.185 59.3048C246.023 58.997 245.948 58.6377 245.958 58.227C245.968 57.8106 246.061 57.4553 246.238 57.161C246.419 56.8612 246.67 56.6333 246.989 56.4775C247.308 56.316 247.682 56.2402 248.109 56.2501C248.537 56.2601 248.898 56.3473 249.192 56.5118C249.493 56.6707 249.718 56.9012 249.868 57.2031C250.018 57.4993 250.088 57.8556 250.078 58.272C250.077 58.3227 250.073 58.3761 250.066 58.4322C250.064 58.4885 250.06 58.5334 250.054 58.567L246.577 58.4863L246.593 57.811L249.117 57.8697L248.812 58.2511C248.835 58.2178 248.856 58.1733 248.874 58.1174C248.898 58.056 248.911 58.0056 248.912 57.9662C248.916 57.7749 248.884 57.6109 248.814 57.4742C248.75 57.3375 248.654 57.2283 248.527 57.1466C248.399 57.0648 248.248 57.0219 248.074 57.0178C247.86 57.0128 247.679 57.0565 247.53 57.1488C247.387 57.2355 247.274 57.3708 247.191 57.5547C247.113 57.733 247.068 57.9572 247.056 58.2272C247.049 58.486 247.081 58.7063 247.149 58.888C247.224 59.0699 247.336 59.2105 247.485 59.3097C247.635 59.4088 247.817 59.4609 248.03 59.4659C248.272 59.4715 248.479 59.4313 248.65 59.3452C248.827 59.2536 248.974 59.1162 249.091 58.9331L250.037 59.2507C249.826 59.6117 249.549 59.8812 249.207 60.059C248.87 60.2314 248.468 60.3121 248.001 60.3013ZM250.451 56.389L252.848 56.4447L252.826 57.3647L250.429 57.309L250.451 56.389ZM251.151 55.054L252.206 55.0785L252.078 60.3115L251.023 60.287L251.151 55.054ZM253.417 54.9546C253.421 54.7746 253.489 54.6298 253.621 54.5203C253.754 54.4051 253.91 54.3496 254.09 54.3538C254.27 54.358 254.421 54.4206 254.542 54.5416C254.668 54.6572 254.729 54.805 254.725 54.985C254.721 55.1595 254.652 55.3043 254.52 55.4194C254.393 55.5347 254.24 55.5903 254.06 55.5861C253.88 55.5819 253.726 55.5192 253.6 55.398C253.473 55.2769 253.412 55.1291 253.417 54.9546ZM253.498 56.4598L254.561 56.4845L254.466 60.367L253.402 60.3423L253.498 56.4598ZM258.191 58.0889C258.198 57.8301 258.152 57.6319 258.054 57.4945C257.956 57.3572 257.794 57.2858 257.569 57.2806C257.417 57.2771 257.281 57.3077 257.162 57.3725C257.042 57.4316 256.95 57.5196 256.885 57.6363C256.82 57.753 256.786 57.893 256.782 58.0562L256.724 60.4194L255.626 60.3939L255.722 56.5114L256.819 56.5369L256.804 57.1277C256.928 56.911 257.087 56.7486 257.281 56.6405C257.481 56.5269 257.719 56.4733 257.994 56.4798C258.456 56.4905 258.796 56.6307 259.014 56.9004C259.233 57.1644 259.337 57.53 259.325 57.997L259.264 60.4785L258.133 60.4522L258.191 58.0889ZM260.149 60.7692L261.221 60.7941C261.222 60.9631 261.264 61.1076 261.345 61.2277C261.427 61.3535 261.54 61.4518 261.684 61.5227C261.829 61.5937 262 61.6314 262.197 61.636C262.377 61.6402 262.547 61.6019 262.706 61.5211C262.871 61.4405 263.004 61.3141 263.104 61.1419C263.21 60.9698 263.266 60.7516 263.272 60.4871L263.365 56.689L264.421 56.7135L264.327 60.5116C264.315 60.9899 264.21 61.3815 264.011 61.6866C263.818 61.9917 263.562 62.211 263.243 62.3444C262.925 62.4833 262.58 62.5485 262.208 62.5399C261.758 62.5294 261.383 62.4475 261.083 62.2942C260.782 62.1464 260.554 61.9384 260.397 61.6702C260.246 61.4077 260.163 61.1074 260.149 60.7692ZM260.128 58.5224C260.139 58.0891 260.235 57.7282 260.416 57.4396C260.598 57.1455 260.834 56.9258 261.125 56.7805C261.416 56.6352 261.722 56.5663 262.042 56.5738C262.369 56.5814 262.654 56.6668 262.898 56.8301C263.147 56.9935 263.338 57.226 263.472 57.5275C263.611 57.8235 263.675 58.1825 263.665 58.6045C263.654 59.0209 263.572 59.3765 263.419 59.6713C263.271 59.9663 263.068 60.1896 262.811 60.3413C262.56 60.4874 262.271 60.5567 261.945 60.5492C261.624 60.5417 261.322 60.4587 261.039 60.3001C260.755 60.1415 260.53 59.9139 260.363 59.6172C260.196 59.315 260.118 58.95 260.128 58.5224ZM261.259 58.5486C261.253 58.7793 261.296 58.9774 261.388 59.1428C261.48 59.3026 261.606 59.4265 261.767 59.5147C261.928 59.6029 262.102 59.6492 262.288 59.6535C262.451 59.6573 262.609 59.6216 262.763 59.5463C262.923 59.4656 263.052 59.3475 263.152 59.1922C263.257 59.0314 263.313 58.8328 263.319 58.5965C263.323 58.4164 263.299 58.2582 263.246 58.1219C263.193 57.9855 263.117 57.8711 263.018 57.7788C262.924 57.6865 262.819 57.6165 262.702 57.5687C262.585 57.5154 262.465 57.4872 262.341 57.4843C262.155 57.48 261.98 57.5182 261.814 57.5988C261.649 57.6794 261.517 57.8002 261.417 57.9611C261.318 58.1165 261.265 58.3123 261.259 58.5486ZM267.545 55.8487L267.572 54.7599L271.961 54.8618L271.934 55.9506L270.339 55.9136L270.22 60.733L269.013 60.7049L269.132 55.8855L267.545 55.8487ZM272.892 56.9103L272.796 60.7928L271.724 60.7679L271.82 56.8854L272.892 56.9103ZM274.003 58.0762C273.932 58.0069 273.857 57.9545 273.779 57.9189C273.707 57.8779 273.615 57.856 273.502 57.8534C273.367 57.8503 273.251 57.8842 273.153 57.9551C273.056 58.026 272.98 58.1284 272.926 58.2623C272.878 58.3906 272.851 58.5477 272.847 58.7334L272.551 58.4224C272.558 58.113 272.624 57.8414 272.748 57.6079C272.872 57.3686 273.031 57.1809 273.226 57.0447C273.421 56.9028 273.62 56.8343 273.823 56.839C273.963 56.8422 274.095 56.8706 274.217 56.9242C274.346 56.9778 274.448 57.0562 274.524 57.1593L274.003 58.0762ZM275.819 59.6554C275.817 59.7679 275.842 59.867 275.897 59.9527C275.951 60.0328 276.025 60.0965 276.12 60.1437C276.22 60.1855 276.329 60.2077 276.448 60.2104C276.616 60.2144 276.769 60.1841 276.906 60.1197C277.043 60.0497 277.155 59.951 277.243 59.8235C277.33 59.6905 277.376 59.5311 277.381 59.3454L277.504 59.8549C277.497 60.1025 277.422 60.3091 277.277 60.4746C277.138 60.6403 276.958 60.7628 276.736 60.8421C276.52 60.9215 276.294 60.9585 276.058 60.953C275.816 60.9474 275.592 60.8943 275.386 60.7938C275.18 60.6933 275.015 60.5516 274.89 60.3685C274.771 60.1799 274.714 59.9534 274.721 59.689C274.73 59.312 274.87 59.0168 275.139 58.8035C275.409 58.5902 275.786 58.4892 276.27 58.5004C276.518 58.5062 276.734 58.5365 276.918 58.5915C277.108 58.6465 277.267 58.7122 277.395 58.7883C277.522 58.8645 277.613 58.937 277.668 59.0058L277.656 59.5122C277.506 59.3962 277.337 59.3078 277.147 59.2471C276.963 59.1865 276.766 59.1538 276.558 59.1489C276.389 59.145 276.251 59.1643 276.143 59.2068C276.035 59.2437 275.955 59.301 275.902 59.3786C275.85 59.4506 275.822 59.5428 275.819 59.6554ZM275.436 58.0672L275.049 57.3151C275.255 57.2129 275.505 57.1173 275.8 57.0285C276.095 56.934 276.422 56.8909 276.782 56.8993C277.114 56.907 277.409 56.9617 277.665 57.0634C277.922 57.165 278.121 57.3104 278.262 57.4995C278.404 57.6829 278.472 57.9069 278.466 58.1714L278.398 60.9229L277.343 60.8984L277.405 58.3748C277.407 58.2678 277.393 58.1774 277.361 58.1035C277.329 58.0239 277.277 57.958 277.205 57.9056C277.139 57.8534 277.058 57.815 276.963 57.7902C276.868 57.7655 276.761 57.7518 276.643 57.749C276.463 57.7448 276.291 57.7605 276.127 57.7961C275.963 57.8317 275.821 57.8763 275.701 57.9298C275.582 57.9833 275.493 58.0291 275.436 58.0672ZM279.181 57.0563L281.612 57.1128L281.589 58.0328L279.158 57.9763L279.181 57.0563ZM281.533 55.5064C281.479 55.4207 281.416 55.3629 281.343 55.3331C281.277 55.2978 281.209 55.2793 281.142 55.2778C281.058 55.2758 280.984 55.2966 280.921 55.3402C280.864 55.3783 280.817 55.4447 280.781 55.5396C280.745 55.6345 280.725 55.7551 280.721 55.9014L280.596 60.974L279.541 60.9495L279.672 55.6321C279.68 55.3339 279.736 55.0846 279.843 54.8844C279.949 54.6842 280.105 54.533 280.31 54.4308C280.515 54.323 280.764 54.2725 281.057 54.2793C281.231 54.2833 281.38 54.3093 281.502 54.3572C281.625 54.3994 281.728 54.4525 281.811 54.5163C281.899 54.5803 281.968 54.641 282.018 54.6985L281.533 55.5064ZM281.934 57.1203L284.365 57.1768L284.342 58.0968L281.912 58.0403L281.934 57.1203ZM284.286 55.5704C284.232 55.4847 284.169 55.4269 284.096 55.3971C284.03 55.3617 283.963 55.3433 283.895 55.3417C283.811 55.3397 283.737 55.3606 283.674 55.4041C283.617 55.4422 283.57 55.5087 283.534 55.6036C283.498 55.6984 283.478 55.819 283.474 55.9653L283.35 61.0379L282.294 61.0134L282.425 55.696C282.433 55.3978 282.489 55.1486 282.596 54.9484C282.702 54.7482 282.858 54.597 283.063 54.4948C283.268 54.3869 283.517 54.3364 283.81 54.3432C283.984 54.3473 284.133 54.3732 284.255 54.4211C284.378 54.4634 284.481 54.5164 284.564 54.5803C284.653 54.6443 284.721 54.705 284.771 54.7624L284.286 55.5704ZM285.003 55.6884C285.007 55.5083 285.075 55.3635 285.208 55.254C285.34 55.1388 285.496 55.0833 285.676 55.0875C285.856 55.0917 286.007 55.1543 286.128 55.2753C286.254 55.3909 286.315 55.5387 286.311 55.7187C286.307 55.8932 286.238 56.038 286.106 56.1531C285.979 56.2684 285.826 56.324 285.646 56.3198C285.466 56.3156 285.313 56.2529 285.186 56.1318C285.06 56.0106 284.998 55.8628 285.003 55.6884ZM285.084 57.1935L286.147 57.2182L286.052 61.1007L284.988 61.076L285.084 57.1935ZM288.087 59.2056C288.082 59.4307 288.128 59.6288 288.225 59.8C288.322 59.9711 288.454 60.1065 288.62 60.2061C288.792 60.3058 288.982 60.358 289.191 60.3629C289.359 60.3668 289.523 60.3453 289.682 60.2983C289.841 60.2457 289.983 60.1758 290.109 60.0886C290.241 59.996 290.342 59.8886 290.413 59.7663L290.385 60.8889C290.247 61.0095 290.068 61.1039 289.846 61.172C289.631 61.2345 289.38 61.2625 289.093 61.2558C288.682 61.2462 288.313 61.1532 287.985 60.9767C287.662 60.8003 287.409 60.558 287.226 60.2497C287.048 59.9359 286.963 59.5792 286.973 59.1797C286.983 58.7746 287.085 58.4223 287.278 58.1227C287.477 57.8233 287.741 57.593 288.072 57.4318C288.408 57.2707 288.781 57.1949 289.192 57.2044C289.479 57.2111 289.729 57.2535 289.941 57.3316C290.159 57.4042 290.334 57.5012 290.466 57.6225L290.438 58.7451C290.374 58.6197 290.275 58.5104 290.142 58.4173C290.015 58.3186 289.873 58.2421 289.717 58.1878C289.561 58.1335 289.404 58.1045 289.246 58.1009C289.038 58.096 288.845 58.1422 288.669 58.2395C288.497 58.3312 288.359 58.4603 288.254 58.6268C288.148 58.7932 288.093 58.9862 288.087 59.2056Z" fill="#303030"/>
<ellipse cx="202.044" cy="49.4271" rx="17.6906" ry="17.7275" transform="rotate(21.7327 202.044 49.4271)" fill="#CFDDFF"/>
<g filter="url(#filter2_d_4_4096)">
<ellipse cx="202.045" cy="49.4274" rx="9.18119" ry="9.20036" transform="rotate(21.7327 202.045 49.4274)" fill="#2562FF"/>
<path d="M210.328 52.7293C208.501 57.3145 203.31 59.5522 198.736 57.7288C194.161 55.9054 191.934 50.7107 193.761 46.1255C195.589 41.5404 200.779 39.3027 205.354 41.1261C209.928 42.9495 212.156 48.1442 210.328 52.7293Z" stroke="#CAD9FF" stroke-width="0.527677"/>
</g>
<path d="M105.386 94L103.895 241.766M240.81 95.2508L239.319 243.017M174.14 94.635L172.649 242.401M308.869 95.8793L307.378 243.646M138.721 94.3079L137.23 242.074M274.84 95.565L273.349 243.331M207.474 94.9429L205.983 242.709M342.899 96.1936L341.407 243.96M76.0405 215.34L375.361 218.105M76.6781 152.139L375.998 154.903M76.354 184.185L375.674 186.949M77.0009 120.093L376.321 122.858" stroke="#E4B5A8" stroke-width="0.411357"/>
<path d="M98 232L167.077 172.681L191.5 204L247 158L290.822 208.876L355 139" stroke="url(#paint5_linear_4_4096)" stroke-width="8" stroke-linecap="round"/>
<g filter="url(#filter3_d_4_4096)">
<ellipse cx="247.729" cy="158.741" rx="12.0979" ry="12.1232" transform="rotate(21.7327 247.729 158.741)" fill="white"/>
<path d="M257.109 162.48C255.037 167.677 249.157 170.208 243.98 168.145C238.803 166.081 236.277 160.199 238.348 155.002C240.42 149.805 246.3 147.274 251.477 149.337C256.654 151.401 259.18 157.283 257.109 162.48Z" stroke="#3DACB7" stroke-width="4"/>
</g>
<g filter="url(#filter4_d_4_4096)">
<ellipse cx="189.729" cy="204.741" rx="12.0979" ry="12.1232" transform="rotate(21.7327 189.729 204.741)" fill="white"/>
<path d="M199.109 208.48C197.037 213.677 191.157 216.208 185.98 214.145C180.803 212.081 178.277 206.199 180.348 201.002C182.42 195.805 188.3 193.274 193.477 195.337C198.654 197.401 201.18 203.283 199.109 208.48Z" stroke="#3D95CF" stroke-width="4"/>
</g>
<g filter="url(#filter5_d_4_4096)">
<ellipse cx="292.729" cy="204.741" rx="12.0979" ry="12.1232" transform="rotate(21.7327 292.729 204.741)" fill="white"/>
<path d="M302.109 208.48C300.037 213.677 294.157 216.208 288.98 214.145C283.803 212.081 281.277 206.199 283.348 201.002C285.42 195.805 291.3 193.274 296.477 195.337C301.654 197.401 304.18 203.283 302.109 208.48Z" stroke="#3DC39E" stroke-width="4"/>
</g>
<g filter="url(#filter6_d_4_4096)">
<ellipse cx="163.706" cy="173.718" rx="12.0803" ry="12.1055" transform="rotate(21.7327 163.706 173.718)" fill="white"/>
<path d="M173.07 177.451C171.002 182.639 165.132 185.165 159.964 183.105C154.796 181.045 152.274 175.174 154.342 169.986C156.41 164.798 162.28 162.271 167.448 164.331C172.616 166.391 175.138 172.263 173.07 177.451Z" stroke="#3C88DC" stroke-width="4"/>
</g>
<defs>
<filter id="filter0_i_4_4096" x="0.396484" y="0.586182" width="161.116" height="85.017" filterUnits="userSpaceOnUse" color-interpolation-filters="sRGB">
<feFlood flood-opacity="0" result="BackgroundImageFix"/>
<feBlend mode="normal" in="SourceGraphic" in2="BackgroundImageFix" result="shape"/>
<feColorMatrix in="SourceAlpha" type="matrix" values="0 0 0 0 0 0 0 0 0 0 0 0 0 0 0 0 0 0 127 0" result="hardAlpha"/>
<feOffset dx="-1.02691" dy="1.02691"/>
<feComposite in2="hardAlpha" operator="arithmetic" k2="-1" k3="1"/>
<feColorMatrix type="matrix" values="0 0 0 0 1 0 0 0 0 1 0 0 0 0 1 0 0 0 1 0"/>
<feBlend mode="normal" in2="shape" result="effect1_innerShadow_4_4096"/>
</filter>
<filter id="filter1_i_4_4096" x="173.931" y="17.1022" width="130.586" height="64.2501" filterUnits="userSpaceOnUse" color-interpolation-filters="sRGB">
<feFlood flood-opacity="0" result="BackgroundImageFix"/>
<feBlend mode="normal" in="SourceGraphic" in2="BackgroundImageFix" result="shape"/>
<feColorMatrix in="SourceAlpha" type="matrix" values="0 0 0 0 0 0 0 0 0 0 0 0 0 0 0 0 0 0 127 0" result="hardAlpha"/>
<feOffset dx="-1.02691" dy="1.02691"/>
<feComposite in2="hardAlpha" operator="arithmetic" k2="-1" k3="1"/>
<feColorMatrix type="matrix" values="0 0 0 0 1 0 0 0 0 1 0 0 0 0 1 0 0 0 1 0"/>
<feBlend mode="normal" in2="shape" result="effect1_innerShadow_4_4096"/>
</filter>
<filter id="filter2_d_4_4096" x="191.275" y="40.2273" width="24.7052" height="25.2602" filterUnits="userSpaceOnUse" color-interpolation-filters="sRGB">
<feFlood flood-opacity="0" result="BackgroundImageFix"/>
<feColorMatrix in="SourceAlpha" type="matrix" values="0 0 0 0 0 0 0 0 0 0 0 0 0 0 0 0 0 0 127 0" result="hardAlpha"/>
<feOffset dx="1.58303" dy="3.69374"/>
<feGaussianBlur stdDeviation="1.58303"/>
<feComposite in2="hardAlpha" operator="out"/>
<feColorMatrix type="matrix" values="0 0 0 0 0.66125 0 0 0 0 0.717563 0 0 0 0 0.8625 0 0 0 1 0"/>
<feBlend mode="normal" in2="BackgroundImageFix" result="effect1_dropShadow_4_4096"/>
<feBlend mode="normal" in="SourceGraphic" in2="effect1_dropShadow_4_4096" result="shape"/>
</filter>
<filter id="filter3_d_4_4096" x="233.833" y="146.618" width="31.3724" height="32.0062" filterUnits="userSpaceOnUse" color-interpolation-filters="sRGB">
<feFlood flood-opacity="0" result="BackgroundImageFix"/>
<feColorMatrix in="SourceAlpha" type="matrix" values="0 0 0 0 0 0 0 0 0 0 0 0 0 0 0 0 0 0 127 0" result="hardAlpha"/>
<feOffset dx="1.79086" dy="4.17866"/>
<feGaussianBlur stdDeviation="1.79086"/>
<feComposite in2="hardAlpha" operator="out"/>
<feColorMatrix type="matrix" values="0 0 0 0 0.875 0 0 0 0 0.73125 0 0 0 0 0.707292 0 0 0 1 0"/>
<feBlend mode="multiply" in2="BackgroundImageFix" result="effect1_dropShadow_4_4096"/>
<feBlend mode="normal" in="SourceGraphic" in2="effect1_dropShadow_4_4096" result="shape"/>
</filter>
<filter id="filter4_d_4_4096" x="175.833" y="192.618" width="31.3724" height="32.0062" filterUnits="userSpaceOnUse" color-interpolation-filters="sRGB">
<feFlood flood-opacity="0" result="BackgroundImageFix"/>
<feColorMatrix in="SourceAlpha" type="matrix" values="0 0 0 0 0 0 0 0 0 0 0 0 0 0 0 0 0 0 127 0" result="hardAlpha"/>
<feOffset dx="1.79086" dy="4.17866"/>
<feGaussianBlur stdDeviation="1.79086"/>
<feComposite in2="hardAlpha" operator="out"/>
<feColorMatrix type="matrix" values="0 0 0 0 0.875 0 0 0 0 0.73125 0 0 0 0 0.707292 0 0 0 1 0"/>
<feBlend mode="multiply" in2="BackgroundImageFix" result="effect1_dropShadow_4_4096"/>
<feBlend mode="normal" in="SourceGraphic" in2="effect1_dropShadow_4_4096" result="shape"/>
</filter>
<filter id="filter5_d_4_4096" x="278.833" y="192.618" width="31.3724" height="32.0062" filterUnits="userSpaceOnUse" color-interpolation-filters="sRGB">
<feFlood flood-opacity="0" result="BackgroundImageFix"/>
<feColorMatrix in="SourceAlpha" type="matrix" values="0 0 0 0 0 0 0 0 0 0 0 0 0 0 0 0 0 0 127 0" result="hardAlpha"/>
<feOffset dx="1.79086" dy="4.17866"/>
<feGaussianBlur stdDeviation="1.79086"/>
<feComposite in2="hardAlpha" operator="out"/>
<feColorMatrix type="matrix" values="0 0 0 0 0.875 0 0 0 0 0.73125 0 0 0 0 0.707292 0 0 0 1 0"/>
<feBlend mode="multiply" in2="BackgroundImageFix" result="effect1_dropShadow_4_4096"/>
<feBlend mode="normal" in="SourceGraphic" in2="effect1_dropShadow_4_4096" result="shape"/>
</filter>
<filter id="filter6_d_4_4096" x="149.828" y="161.613" width="31.3372" height="31.9709" filterUnits="userSpaceOnUse" color-interpolation-filters="sRGB">
<feFlood flood-opacity="0" result="BackgroundImageFix"/>
<feColorMatrix in="SourceAlpha" type="matrix" values="0 0 0 0 0 0 0 0 0 0 0 0 0 0 0 0 0 0 127 0" result="hardAlpha"/>
<feOffset dx="1.79086" dy="4.17866"/>
<feGaussianBlur stdDeviation="1.79086"/>
<feComposite in2="hardAlpha" operator="out"/>
<feColorMatrix type="matrix" values="0 0 0 0 0.875 0 0 0 0 0.73125 0 0 0 0 0.707292 0 0 0 1 0"/>
<feBlend mode="multiply" in2="BackgroundImageFix" result="effect1_dropShadow_4_4096"/>
<feBlend mode="normal" in="SourceGraphic" in2="effect1_dropShadow_4_4096" result="shape"/>
</filter>
<linearGradient id="paint0_linear_4_4096" x1="146.232" y1="30.4321" x2="11.7943" y2="1.06736" gradientUnits="userSpaceOnUse">
<stop stop-color="#F4F4F4"/>
<stop offset="0.421875" stop-color="#F4F4F4"/>
<stop offset="1" stop-color="white"/>
</linearGradient>
<linearGradient id="paint1_linear_4_4096" x1="80.8845" y1="14.3843" x2="80.4575" y2="82.4016" gradientUnits="userSpaceOnUse">
<stop stop-color="#DADADA"/>
<stop offset="1" stop-color="white" stop-opacity="0"/>
</linearGradient>
<linearGradient id="paint2_linear_4_4096" x1="79.9615" y1="43.0059" x2="79.4439" y2="67.7648" gradientUnits="userSpaceOnUse">
<stop stop-color="#65D2E5"/>
<stop offset="1" stop-color="white" stop-opacity="0"/>
</linearGradient>
<linearGradient id="paint3_linear_4_4096" x1="80.282" y1="31.6691" x2="79.4798" y2="76.8024" gradientUnits="userSpaceOnUse">
<stop stop-color="#6865E5"/>
<stop offset="1" stop-color="white" stop-opacity="0"/>
</linearGradient>
<linearGradient id="paint4_linear_4_4096" x1="118.88" y1="23.2751" x2="10.2306" y2="-1.95031" gradientUnits="userSpaceOnUse">
<stop stop-color="#F4F4F4"/>
<stop offset="0.421875" stop-color="#F4F4F4"/>
<stop offset="1" stop-color="white"/>
</linearGradient>
<linearGradient id="paint5_linear_4_4096" x1="314.131" y1="131.962" x2="102.79" y2="191.963" gradientUnits="userSpaceOnUse">
<stop stop-color="#3DCF92"/>
<stop offset="1" stop-color="#3D67FF"/>
</linearGradient>
</defs>
</svg>
