<svg width="32" height="40" viewBox="0 0 32 40" fill="none" xmlns="http://www.w3.org/2000/svg">
<path d="M3.57487 38.6378H30.2009M21.3256 15.5619C21.3256 18.5029 18.9414 20.8871 16.0004 20.8871C13.0593 20.8871 10.6752 18.5029 10.6752 15.5619C10.6752 12.6209 13.0593 10.2367 16.0004 10.2367C18.9414 10.2367 21.3256 12.6209 21.3256 15.5619ZM30.201 15.6984C30.201 28.6019 16.0004 38.6378 16.0004 38.6378C16.0004 38.6378 1.7998 28.6019 1.7998 15.6984C1.7998 11.896 3.29593 8.2493 5.95906 5.56057C8.62218 2.87184 12.2342 1.36133 16.0004 1.36133C19.7666 1.36133 23.3786 2.87184 26.0417 5.56057C28.7048 8.2493 30.201 11.896 30.201 15.6984Z" stroke="#8A8A8A" stroke-width="2.2" stroke-linecap="round" stroke-linejoin="round"/>
</svg>
