<svg width="25" height="38" viewBox="0 0 25 38" fill="none" xmlns="http://www.w3.org/2000/svg">
<path d="M16.5 17.6429H13.8333V6.78571H15.1667C16.5798 6.79019 17.9338 7.36356 18.933 8.38065C19.9323 9.39773 20.4956 10.7759 20.5 12.2143C20.5 12.5742 20.6405 12.9194 20.8905 13.1739C21.1406 13.4284 21.4797 13.5714 21.8333 13.5714C22.187 13.5714 22.5261 13.4284 22.7761 13.1739C23.0262 12.9194 23.1667 12.5742 23.1667 12.2143C23.1667 10.0547 22.3238 7.9835 20.8235 6.45642C19.3232 4.92933 17.2884 4.07143 15.1667 4.07143H13.8333V1.35714C13.8333 0.997206 13.6929 0.652012 13.4428 0.397498C13.1928 0.142984 12.8536 0 12.5 0C12.1464 0 11.8072 0.142984 11.5572 0.397498C11.3071 0.652012 11.1667 0.997206 11.1667 1.35714V4.07143H9.16667C7.04493 4.07143 5.0101 4.92933 3.50981 6.45642C2.00952 7.9835 1.16667 10.0547 1.16667 12.2143C1.16667 14.3739 2.00952 16.4451 3.50981 17.9722C5.0101 19.4992 7.04493 20.3571 9.16667 20.3571H11.1667V31.2143H8.5C7.08686 31.2098 5.73286 30.6364 4.73362 29.6194C3.73438 28.6023 3.17106 27.2241 3.16667 25.7857C3.16667 25.4258 3.02619 25.0806 2.77614 24.8261C2.52609 24.5716 2.18696 24.4286 1.83333 24.4286C1.47971 24.4286 1.14057 24.5716 0.890525 24.8261C0.640476 25.0806 0.5 25.4258 0.5 25.7857C0.5 27.9453 1.34285 30.0165 2.84315 31.5436C4.34344 33.0707 6.37827 33.9286 8.5 33.9286H11.1667V36.6429C11.1667 37.0028 11.3071 37.348 11.5572 37.6025C11.8072 37.857 12.1464 38 12.5 38C12.8536 38 13.1928 37.857 13.4428 37.6025C13.6929 37.348 13.8333 37.0028 13.8333 36.6429V33.9286H16.5C18.6217 33.9286 20.6566 33.0707 22.1569 31.5436C23.6571 30.0165 24.5 27.9453 24.5 25.7857C24.5 23.6261 23.6571 21.5549 22.1569 20.0278C20.6566 18.5008 18.6217 17.6429 16.5 17.6429ZM11.1667 17.6429H9.16667C7.75218 17.6429 6.39562 17.0709 5.39543 16.0529C4.39524 15.0348 3.83333 13.654 3.83333 12.2143C3.83333 10.7745 4.39524 9.39376 5.39543 8.37571C6.39562 7.35765 7.75218 6.78571 9.16667 6.78571H11.1667V17.6429ZM16.5 31.2143H13.8333V20.3571H16.5C17.9145 20.3571 19.271 20.9291 20.2712 21.9471C21.2714 22.9652 21.8333 24.346 21.8333 25.7857C21.8333 27.2255 21.2714 28.6062 20.2712 29.6243C19.271 30.6423 17.9145 31.2143 16.5 31.2143Z" fill="#B4962B"/>
</svg>
