<svg width="594" height="401" viewBox="0 0 594 401" fill="none" xmlns="http://www.w3.org/2000/svg">
<circle cx="435.987" cy="208.192" r="269.76" fill="white"/>
<g filter="url(#filter0_f_253_25)">
<circle cx="376.587" cy="205.066" r="176.228" fill="#CFDDEC"/>
</g>
<path d="M376.978 330.792L341.774 343.438M376.978 330.792L376.978 51.8268M376.978 330.792L417.386 336.674M376.978 330.792L526.978 280.998M526.978 85.2944L491.366 77.3487M526.978 85.2944L526.978 137.332M526.978 85.2944L252.003 168.759M376.978 51.8268L336.978 62.3055M376.978 51.8268L417.386 60.8426M306.57 356.084L258.815 373.238L257.082 321.2M306.57 356.084L296.978 72.7842M306.57 356.084L341.774 343.438M296.978 72.7842L249.223 85.2944L250.613 127.027M296.978 72.7842L336.978 62.3055M336.978 62.3055L341.774 343.438M417.386 60.8426L417.386 336.674M417.386 60.8426L455.754 69.403M417.386 336.674L455.754 342.259M455.754 342.259L455.754 69.403M455.754 342.259L491.366 347.443M455.754 342.259L526.978 316.813M455.754 69.403L491.366 77.3487M455.754 69.403L250.613 127.027M491.366 77.3487L491.366 347.443M491.366 347.443L526.978 352.627L526.978 316.813M257.082 321.2L526.978 232.429M257.082 321.2L255.627 277.529M526.978 232.429L526.978 183.657M526.978 232.429L526.978 280.998M255.627 277.529L526.978 183.657M255.627 277.529L253.846 224.063M526.978 183.657L526.978 137.332M253.846 224.063L526.978 137.332M253.846 224.063L252.003 168.759M252.003 168.759L250.613 127.027M526.978 280.998L526.978 316.813" stroke="url(#paint0_linear_253_25)" stroke-width="2"/>
<defs>
<filter id="filter0_f_253_25" x="0.358398" y="-171.162" width="752.456" height="752.456" filterUnits="userSpaceOnUse" color-interpolation-filters="sRGB">
<feFlood flood-opacity="0" result="BackgroundImageFix"/>
<feBlend mode="normal" in="SourceGraphic" in2="BackgroundImageFix" result="shape"/>
<feGaussianBlur stdDeviation="100" result="effect1_foregroundBlur_253_25"/>
</filter>
<linearGradient id="paint0_linear_253_25" x1="513.375" y1="104.025" x2="413.725" y2="231.83" gradientUnits="userSpaceOnUse">
<stop stop-color="#CFDEEC"/>
<stop offset="1" stop-color="#B0C2D5" stop-opacity="0"/>
</linearGradient>
</defs>
</svg>
