<svg width="89" height="88" viewBox="0 0 89 88" fill="none" xmlns="http://www.w3.org/2000/svg">
<circle cx="44.0308" cy="44" r="44" fill="#5956E8"/>
<path d="M44.0308 52C48.449 52 52.0308 48.4183 52.0308 44C52.0308 39.5817 48.449 36 44.0308 36C39.6125 36 36.0308 39.5817 36.0308 44C36.0308 48.4183 39.6125 52 44.0308 52Z" stroke="#C4C2FF" stroke-width="2" stroke-linecap="round" stroke-linejoin="round"/>
<path d="M53.462 33.3496C53.891 33.7447 54.2974 34.1511 54.6812 34.5687L59.3037 35.2291C60.0568 36.5371 60.6374 37.9372 61.0308 39.3944L58.22 43.1365C58.22 43.1365 58.2708 44.2879 58.22 44.8635L61.0308 48.6056C60.6392 50.0634 60.0586 51.4637 59.3037 52.7709L54.6812 53.4313C54.6812 53.4313 53.8853 54.261 53.462 54.6504L52.8017 59.2729C51.4937 60.0261 50.0936 60.6066 48.6363 61L44.8943 58.1892C44.3197 58.2401 43.7418 58.2401 43.1672 58.1892L39.4252 61C37.9674 60.6084 36.567 60.0278 35.2598 59.2729L34.5995 54.6504C34.1818 54.2553 33.7754 53.8489 33.3804 53.4313L28.7579 52.7709C28.0047 51.4629 27.4241 50.0628 27.0308 48.6056L29.8415 44.8635C29.8415 44.8635 29.7907 43.7122 29.8415 43.1365L27.0308 39.3944C27.4223 37.9366 28.0029 36.5363 28.7579 35.2291L33.3804 34.5687C33.7754 34.1511 34.1818 33.7447 34.5995 33.3496L35.2598 28.7271C36.5679 27.9739 37.968 27.3934 39.4252 27L43.1672 29.8108C43.7418 29.7599 44.3197 29.7599 44.8943 29.8108L48.6363 27C50.0942 27.3916 51.4945 27.9722 52.8017 28.7271L53.462 33.3496Z" stroke="#C4C2FF" stroke-width="2" stroke-linecap="round" stroke-linejoin="round"/>
</svg>
