<svg width="27" height="27" viewBox="0 0 27 27" fill="none" xmlns="http://www.w3.org/2000/svg">
<path d="M19.1148 2.67991C20.6046 2.68419 22.0322 3.25559 23.0856 4.2693C24.1391 5.28301 24.7329 6.65667 24.7373 8.09028V18.9098C24.7329 20.3434 24.1391 21.7171 23.0856 22.7308C22.0322 23.7445 20.6046 24.3159 19.1148 24.3202H7.8711C6.38129 24.3159 4.95378 23.7445 3.90033 22.7308C2.84687 21.7171 2.25308 20.3434 2.24863 18.9098V8.09028C2.25308 6.65667 2.84687 5.28301 3.90033 4.2693C4.95378 3.25559 6.38129 2.68419 7.8711 2.67991H19.1148ZM19.1148 0.516113H7.8711C3.5419 0.516113 0 3.9244 0 8.09028V18.9098C0 23.0757 3.5419 26.484 7.8711 26.484H19.1148C23.444 26.484 26.9859 23.0757 26.9859 18.9098V8.09028C26.9859 3.9244 23.444 0.516113 19.1148 0.516113Z" fill="#292930"/>
<path d="M20.802 8.09071C20.4685 8.09071 20.1424 7.99553 19.865 7.81719C19.5876 7.63885 19.3715 7.38538 19.2438 7.08881C19.1162 6.79225 19.0828 6.46592 19.1478 6.15109C19.2129 5.83626 19.3735 5.54707 19.6094 5.32009C19.8453 5.09311 20.1458 4.93854 20.473 4.87591C20.8002 4.81329 21.1393 4.84543 21.4475 4.96827C21.7557 5.09111 22.0191 5.29913 22.2044 5.56603C22.3897 5.83293 22.4887 6.14672 22.4887 6.46772C22.4891 6.68098 22.4458 6.89224 22.3612 7.08936C22.2767 7.28647 22.1524 7.46557 21.9957 7.61637C21.839 7.76717 21.6529 7.8867 21.448 7.9681C21.2432 8.04951 21.0237 8.09117 20.802 8.09071ZM13.4936 9.17232C14.3831 9.17232 15.2528 9.42617 15.9924 9.90175C16.7321 10.3773 17.3086 11.0533 17.649 11.8442C17.9895 12.635 18.0785 13.5053 17.905 14.3449C17.7314 15.1845 17.3031 15.9557 16.674 16.561C16.045 17.1663 15.2435 17.5785 14.371 17.7455C13.4985 17.9125 12.5942 17.8268 11.7723 17.4992C10.9504 17.1716 10.248 16.6169 9.75373 15.9051C9.25949 15.1933 8.9957 14.3565 8.9957 13.5005C8.99698 12.353 9.47126 11.2528 10.3145 10.4414C11.1577 9.62995 12.301 9.17355 13.4936 9.17232ZM13.4936 7.00853C12.1592 7.00853 10.8549 7.38927 9.74541 8.10262C8.63596 8.81597 7.77124 9.82987 7.26062 11.0161C6.74999 12.2024 6.61639 13.5077 6.87671 14.767C7.13702 16.0263 7.77956 17.1831 8.72307 18.091C9.66658 18.9989 10.8687 19.6172 12.1774 19.8677C13.4861 20.1182 14.8426 19.9897 16.0753 19.4983C17.3081 19.0069 18.3617 18.1748 19.1031 17.1072C19.8444 16.0396 20.24 14.7845 20.24 13.5005C20.24 11.7787 19.5292 10.1275 18.264 8.90998C16.9988 7.6925 15.2828 7.00853 13.4936 7.00853Z" fill="#292930"/>
</svg>
