<svg width="28" height="28" viewBox="0 0 28 28" fill="none" xmlns="http://www.w3.org/2000/svg">
<path d="M25.0113 0.79541H3.00369C1.80116 0.79541 0.750488 1.66067 0.750488 2.84907V24.9055C0.750488 26.1004 1.80116 27.1652 3.00369 27.1652H25.0048C26.2138 27.1652 27.1202 26.0933 27.1202 24.9055V2.84907C27.1273 1.66067 26.2138 0.79541 25.0113 0.79541ZM8.92452 22.7759H5.14682V11.0302H8.92452V22.7759ZM7.16634 9.24433H7.13927C5.93026 9.24433 5.14741 8.34434 5.14741 7.21774C5.14741 6.07054 5.95086 5.19174 7.18695 5.19174C8.42303 5.19174 9.17939 6.06406 9.20647 7.21774C9.20588 8.34434 8.42303 9.24433 7.16634 9.24433ZM22.731 22.7759H18.9533V16.3536C18.9533 14.8149 18.4035 13.7637 17.0368 13.7637C15.9926 13.7637 15.3745 14.47 15.0996 15.1581C14.9966 15.4053 14.969 15.742 14.969 16.0857V22.7759H11.1913V11.0302H14.969V12.6647C15.5187 11.8819 16.3775 10.7553 18.3758 10.7553C20.8557 10.7553 22.7316 12.3899 22.7316 15.9139L22.731 22.7759Z" fill="#292930"/>
</svg>
