<svg width="27" height="21" viewBox="0 0 27 21" fill="none" xmlns="http://www.w3.org/2000/svg">
<path d="M26.9029 2.56056C25.9264 2.98454 24.8933 3.26387 23.8361 3.38972C24.9471 2.7396 25.7827 1.70677 26.186 0.484931C25.1355 1.09873 23.9882 1.52939 22.7932 1.75849C22.29 1.23147 21.6847 0.81221 21.0143 0.526197C20.3439 0.240184 19.6223 0.0933894 18.8933 0.0947357C15.942 0.0947357 13.5536 2.44675 13.5536 5.34612C13.5515 5.74941 13.5977 6.1515 13.6913 6.5438C11.575 6.44466 9.50268 5.90517 7.60696 4.95986C5.71123 4.01454 4.03384 2.6842 2.6821 1.05397C2.20788 1.85285 1.95709 2.76435 1.95593 3.69321C1.95593 5.51412 2.90663 7.12368 4.34216 8.06665C3.49165 8.04648 2.65856 7.82153 1.91363 7.4109V7.47594C1.91363 10.023 3.75754 12.142 6.198 12.6244C5.73908 12.7466 5.26616 12.8085 4.79121 12.8086C4.4542 12.8092 4.11795 12.7765 3.78736 12.7111C4.46581 14.7975 6.44042 16.315 8.77948 16.3583C6.87883 17.822 4.54533 18.6132 2.14574 18.6074C1.71981 18.6067 1.29427 18.5814 0.871277 18.5315C3.31238 20.0891 6.14998 20.9131 9.0463 20.9052C18.8819 20.9052 24.2553 12.9007 24.2553 5.95851C24.2553 5.7309 24.2493 5.50328 24.2385 5.28109C25.2814 4.53975 26.1837 3.61848 26.9029 2.56056Z" fill="#292930"/>
</svg>
